<svg xmlns="http://www.w3.org/2000/svg" xmlns:xlink="http://www.w3.org/1999/xlink" width="100" zoomAndPan="magnify" viewBox="0 0 75 74.999997" height="100" preserveAspectRatio="xMidYMid meet" version="1.0"><defs><clipPath id="d9c9cd7621"><path d="M 10.597656 15.910156 L 64.597656 15.910156 L 64.597656 59.410156 L 10.597656 59.410156 Z M 10.597656 15.910156 " clip-rule="nonzero"/></clipPath></defs><g clip-path="url(#d9c9cd7621)"><path fill="#2c74dd" d="M 23.996094 26.433594 C 24.433594 26.433594 24.785156 26.789062 24.785156 27.226562 C 24.785156 27.660156 24.433594 28.015625 23.996094 28.015625 L 15.945312 28.015625 C 15.511719 28.015625 15.15625 27.660156 15.15625 27.226562 C 15.15625 26.789062 15.511719 26.433594 15.945312 26.433594 Z M 48.085938 49.9375 C 46.773438 48.480469 47.878906 46.140625 49.847656 46.242188 C 50.417969 46.273438 50.972656 46.519531 51.378906 46.972656 L 52.757812 48.503906 L 56.535156 44.09375 C 57.820312 42.597656 60.273438 43.40625 60.425781 45.367188 C 60.46875 45.929688 60.296875 46.507812 59.898438 46.972656 L 54.527344 53.242188 C 53.621094 54.339844 52.039062 54.335938 51.144531 53.34375 Z M 49.097656 48.421875 C 49.089844 48.582031 49.144531 48.75 49.261719 48.878906 L 52.402344 52.367188 C 52.679688 52.582031 53.085938 52.523438 53.289062 52.261719 C 53.300781 52.25 53.3125 52.234375 53.324219 52.222656 L 58.699219 45.949219 C 59.058594 45.527344 58.742188 44.859375 58.164062 44.902344 C 58.003906 44.914062 57.847656 44.988281 57.734375 45.121094 L 53.296875 50.289062 C 52.972656 50.582031 52.472656 50.554688 52.183594 50.230469 L 50.207031 48.03125 C 49.824219 47.605469 49.125 47.863281 49.097656 48.421875 Z M 56.996094 38.65625 C 57.117188 36.191406 56.703125 33.820312 55.835938 31.640625 L 59.78125 29.359375 C 60.160156 29.144531 60.289062 28.664062 60.074219 28.285156 L 57.796875 24.347656 C 57.582031 23.96875 57.101562 23.839844 56.722656 24.054688 L 52.558594 26.460938 C 50.308594 24.042969 47.359375 22.296875 44.039062 21.539062 L 44.039062 17.523438 L 46.300781 17.523438 C 46.738281 17.523438 47.09375 17.171875 47.09375 16.734375 C 47.09375 16.296875 46.738281 15.941406 46.300781 15.941406 L 34.332031 15.941406 C 33.894531 15.941406 33.539062 16.296875 33.539062 16.734375 C 33.539062 17.171875 33.894531 17.523438 34.332031 17.523438 L 36.59375 17.523438 L 36.59375 21.539062 C 33.476562 22.25 30.691406 23.832031 28.507812 26.015625 C 21.984375 32.539062 21.984375 43.113281 28.507812 49.636719 C 32.78125 53.910156 39.066406 55.574219 44.96875 53.867188 C 46.304688 56.164062 48.511719 57.953125 51.277344 58.695312 C 56.832031 60.183594 62.550781 56.882812 64.039062 51.324219 C 65.496094 45.890625 62.367188 40.28125 56.996094 38.65625 Z M 44.269531 52.425781 C 43.488281 50.425781 43.3125 48.164062 43.910156 45.933594 C 44.652344 43.15625 46.453125 40.941406 48.765625 39.605469 C 50.730469 38.46875 53.066406 37.972656 55.429688 38.308594 C 55.546875 33.949219 53.886719 30.011719 51.007812 27.132812 C 45.101562 21.230469 35.53125 21.230469 29.625 27.132812 C 23.71875 33.039062 23.71875 42.613281 29.625 48.515625 C 33.421875 52.3125 39.003906 53.847656 44.269531 52.425781 Z M 61.632812 44.207031 C 59.191406 39.980469 53.78125 38.53125 49.554688 40.972656 L 49.554688 40.96875 C 45.304688 43.453125 43.882812 48.832031 46.316406 53.046875 C 48.757812 57.273438 54.167969 58.726562 58.394531 56.285156 C 62.621094 53.84375 64.074219 48.433594 61.632812 44.207031 Z M 42.457031 17.523438 L 42.457031 21.257812 C 41.039062 21.078125 39.589844 21.078125 38.175781 21.257812 L 38.175781 17.523438 Z M 39.523438 26.832031 C 39.523438 26.394531 39.878906 26.039062 40.316406 26.039062 C 40.753906 26.039062 41.105469 26.394531 41.105469 26.832031 L 41.105469 37.824219 C 41.105469 38.261719 40.753906 38.617188 40.316406 38.617188 L 34.230469 38.617188 C 33.792969 38.617188 33.441406 38.261719 33.441406 37.824219 C 33.441406 37.386719 33.792969 37.035156 34.230469 37.035156 L 39.523438 37.035156 Z M 53.589844 27.683594 L 56.828125 25.816406 L 58.3125 28.390625 L 55.179688 30.199219 C 54.722656 29.3125 54.191406 28.472656 53.589844 27.683594 Z M 23.996094 47.632812 C 24.433594 47.632812 24.785156 47.988281 24.785156 48.425781 C 24.785156 48.859375 24.433594 49.214844 23.996094 49.214844 L 15.945312 49.214844 C 15.511719 49.214844 15.15625 48.859375 15.15625 48.425781 C 15.15625 47.988281 15.511719 47.632812 15.945312 47.632812 Z M 20.957031 42.332031 C 21.394531 42.332031 21.746094 42.6875 21.746094 43.125 C 21.746094 43.5625 21.394531 43.914062 20.957031 43.914062 L 12.90625 43.914062 C 12.472656 43.914062 12.117188 43.5625 12.117188 43.125 C 12.117188 42.6875 12.472656 42.332031 12.90625 42.332031 Z M 19.4375 37.035156 C 19.875 37.035156 20.226562 37.386719 20.226562 37.824219 C 20.226562 38.261719 19.875 38.617188 19.4375 38.617188 L 11.390625 38.617188 C 10.953125 38.617188 10.597656 38.261719 10.597656 37.824219 C 10.597656 37.386719 10.953125 37.035156 11.390625 37.035156 Z M 20.957031 31.734375 C 21.394531 31.734375 21.746094 32.089844 21.746094 32.523438 C 21.746094 32.960938 21.394531 33.316406 20.957031 33.316406 L 12.90625 33.316406 C 12.472656 33.316406 12.117188 32.960938 12.117188 32.523438 C 12.117188 32.089844 12.472656 31.734375 12.90625 31.734375 Z M 20.957031 31.734375 " fill-opacity="1" fill-rule="evenodd"/></g></svg>