<svg xmlns="http://www.w3.org/2000/svg" xmlns:xlink="http://www.w3.org/1999/xlink" width="100" zoomAndPan="magnify" viewBox="0 0 75 74.999997" height="100" preserveAspectRatio="xMidYMid meet" version="1.0"><defs><clipPath id="53d4cc3c8e"><path d="M 11.925781 11.925781 L 62.925781 11.925781 L 62.925781 62.925781 L 11.925781 62.925781 Z M 11.925781 11.925781 " clip-rule="nonzero"/></clipPath></defs><g clip-path="url(#53d4cc3c8e)"><path fill="#2c74dd" d="M 62.171875 53.648438 C 62.683594 53.589844 63.066406 53.160156 63.066406 52.648438 L 63.066406 49.867188 C 63.066406 49.359375 62.683594 48.925781 62.171875 48.863281 L 60.402344 48.660156 C 60.199219 47.949219 59.917969 47.265625 59.558594 46.625 L 60.671875 45.226562 C 60.984375 44.828125 60.953125 44.253906 60.589844 43.886719 L 58.632812 41.929688 C 58.269531 41.558594 57.691406 41.523438 57.28125 41.847656 L 55.890625 42.957031 C 55.242188 42.597656 54.558594 42.3125 53.851562 42.113281 L 53.652344 40.335938 C 53.589844 39.828125 53.160156 39.445312 52.648438 39.445312 L 49.871094 39.445312 C 49.351562 39.445312 48.917969 39.832031 48.867188 40.339844 L 48.753906 41.320312 L 43.496094 39.417969 L 49.851562 37.121094 C 50.445312 36.90625 50.828125 36.359375 50.828125 35.726562 C 50.828125 35.09375 50.445312 34.546875 49.851562 34.335938 L 48.5625 33.867188 L 48.5625 26.050781 L 49.242188 26.050781 C 49.890625 26.050781 50.476562 25.695312 50.769531 25.117188 C 51.066406 24.539062 51.015625 23.855469 50.636719 23.328125 L 46.585938 17.707031 C 46.261719 17.257812 45.742188 16.988281 45.191406 16.988281 C 45.191406 16.988281 45.1875 16.988281 45.1875 16.988281 C 44.628906 16.992188 44.121094 17.253906 43.796875 17.707031 C 42.445312 19.582031 41.097656 21.453125 39.746094 23.328125 C 39.367188 23.855469 39.316406 24.539062 39.609375 25.117188 C 39.90625 25.695312 40.492188 26.050781 41.140625 26.050781 L 41.820312 26.050781 L 41.820312 31.433594 L 34.808594 28.902344 L 34.808594 20.984375 L 35.492188 20.984375 C 36.140625 20.984375 36.726562 20.628906 37.019531 20.054688 C 37.316406 19.476562 37.265625 18.792969 36.882812 18.261719 L 32.835938 12.640625 C 32.507812 12.183594 31.996094 11.925781 31.4375 11.925781 C 30.878906 11.925781 30.371094 12.1875 30.042969 12.640625 L 26 18.261719 C 25.621094 18.789062 25.570312 19.476562 25.863281 20.054688 C 26.160156 20.628906 26.746094 20.984375 27.394531 20.984375 L 28.074219 20.984375 L 28.074219 28.902344 L 21.0625 31.433594 L 21.0625 26.050781 L 21.746094 26.050781 C 22.394531 26.050781 22.980469 25.695312 23.273438 25.117188 C 23.570312 24.539062 23.515625 23.855469 23.136719 23.328125 C 21.789062 21.457031 20.4375 19.582031 19.089844 17.710938 C 18.761719 17.253906 18.257812 16.992188 17.699219 16.988281 C 17.695312 16.988281 17.695312 16.988281 17.695312 16.988281 C 17.144531 16.988281 16.625 17.257812 16.300781 17.707031 L 12.25 23.328125 C 11.871094 23.855469 11.820312 24.539062 12.113281 25.117188 C 12.410156 25.695312 12.996094 26.050781 13.644531 26.050781 L 14.324219 26.050781 L 14.324219 33.867188 L 13.035156 34.335938 C 12.441406 34.550781 12.058594 35.097656 12.058594 35.730469 C 12.058594 36.363281 12.441406 36.910156 13.035156 37.121094 L 19.390625 39.417969 L 13.035156 41.714844 C 12.441406 41.933594 12.058594 42.480469 12.058594 43.113281 C 12.058594 43.742188 12.441406 44.289062 13.035156 44.507812 L 19.390625 46.804688 L 13.035156 49.097656 C 12.441406 49.316406 12.054688 49.863281 12.058594 50.496094 C 12.058594 51.128906 12.441406 51.675781 13.035156 51.886719 L 30.941406 58.359375 C 31.105469 58.417969 31.273438 58.449219 31.445312 58.449219 C 31.613281 58.449219 31.78125 58.417969 31.949219 58.359375 L 42.359375 54.597656 C 42.527344 55.039062 42.726562 55.472656 42.957031 55.890625 L 41.847656 57.285156 C 41.523438 57.691406 41.5625 58.269531 41.925781 58.625 L 43.890625 60.597656 C 44.253906 60.953125 44.832031 60.984375 45.230469 60.667969 L 46.628906 59.558594 C 47.265625 59.917969 47.949219 60.199219 48.664062 60.402344 L 48.863281 62.164062 C 48.917969 62.679688 49.351562 63.066406 49.867188 63.066406 L 52.648438 63.066406 C 53.160156 63.066406 53.589844 62.683594 53.652344 62.171875 L 53.851562 60.40625 C 54.5625 60.203125 55.246094 59.917969 55.886719 59.558594 L 57.289062 60.675781 C 57.691406 60.984375 58.265625 60.949219 58.625 60.589844 L 60.589844 58.625 C 60.949219 58.265625 60.984375 57.691406 60.667969 57.28125 L 59.558594 55.886719 C 59.917969 55.242188 60.203125 54.5625 60.40625 53.851562 Z M 41.140625 24.804688 C 40.882812 24.804688 40.761719 24.628906 40.726562 24.550781 C 40.683594 24.472656 40.609375 24.273438 40.761719 24.058594 C 42.113281 22.1875 43.460938 20.3125 44.816406 18.4375 C 44.90625 18.3125 45.042969 18.242188 45.191406 18.242188 C 45.191406 18.242188 45.195312 18.242188 45.195312 18.242188 C 45.34375 18.242188 45.484375 18.3125 45.574219 18.4375 L 49.625 24.058594 C 49.78125 24.277344 49.691406 24.492188 49.660156 24.550781 C 49.621094 24.625 49.503906 24.800781 49.242188 24.800781 L 47.9375 24.800781 C 47.59375 24.800781 47.3125 25.082031 47.3125 25.425781 L 47.3125 34.132812 C 47.3125 34.386719 47.097656 34.601562 46.84375 34.601562 L 43.539062 34.601562 C 43.285156 34.601562 43.070312 34.386719 43.070312 34.132812 L 43.070312 25.425781 C 43.070312 25.082031 42.792969 24.800781 42.445312 24.800781 L 41.140625 24.800781 Z M 27.394531 19.734375 C 27.132812 19.734375 27.015625 19.558594 26.976562 19.484375 C 26.9375 19.40625 26.859375 19.203125 27.011719 18.992188 L 31.0625 13.371094 C 31.183594 13.199219 31.351562 13.171875 31.441406 13.171875 C 31.59375 13.171875 31.734375 13.246094 31.824219 13.371094 L 35.871094 18.992188 C 36.027344 19.203125 35.949219 19.40625 35.910156 19.484375 C 35.871094 19.558594 35.753906 19.734375 35.492188 19.734375 L 34.1875 19.734375 C 33.84375 19.734375 33.5625 20.015625 33.5625 20.359375 L 33.5625 37.082031 C 33.5625 37.335938 33.347656 37.550781 33.09375 37.550781 L 29.789062 37.550781 C 29.539062 37.550781 29.320312 37.335938 29.320312 37.082031 L 29.320312 20.359375 C 29.320312 20.015625 29.042969 19.734375 28.699219 19.734375 Z M 13.644531 24.804688 C 13.382812 24.804688 13.265625 24.628906 13.226562 24.550781 C 13.195312 24.492188 13.109375 24.277344 13.265625 24.058594 L 17.3125 18.4375 C 17.402344 18.3125 17.542969 18.242188 17.695312 18.242188 C 17.847656 18.242188 17.984375 18.3125 18.074219 18.4375 C 19.425781 20.3125 20.777344 22.1875 22.125 24.058594 C 22.277344 24.269531 22.203125 24.472656 22.164062 24.550781 C 22.125 24.625 22.003906 24.804688 21.746094 24.804688 L 20.4375 24.804688 C 20.09375 24.804688 19.8125 25.082031 19.8125 25.429688 L 19.8125 34.136719 C 19.8125 34.386719 19.601562 34.605469 19.34375 34.605469 L 16.042969 34.605469 C 15.789062 34.605469 15.574219 34.390625 15.574219 34.136719 L 15.574219 25.425781 C 15.574219 25.082031 15.292969 24.800781 14.949219 24.800781 L 13.644531 24.800781 Z M 13.304688 35.730469 C 13.304688 35.667969 13.324219 35.558594 13.460938 35.511719 L 14.617188 35.09375 C 14.925781 35.550781 15.449219 35.851562 16.042969 35.851562 L 19.347656 35.851562 C 20.292969 35.851562 21.066406 35.082031 21.066406 34.136719 L 21.066406 32.765625 L 28.074219 30.230469 L 28.074219 37.082031 C 28.074219 38.027344 28.84375 38.796875 29.792969 38.796875 L 33.097656 38.796875 C 34.042969 38.796875 34.816406 38.027344 34.816406 37.082031 L 34.816406 30.230469 L 41.824219 32.765625 L 41.824219 34.136719 C 41.824219 35.082031 42.59375 35.851562 43.542969 35.851562 L 46.847656 35.851562 C 47.441406 35.851562 47.960938 35.550781 48.269531 35.09375 L 49.429688 35.511719 C 49.5625 35.558594 49.582031 35.667969 49.582031 35.730469 C 49.582031 35.792969 49.5625 35.902344 49.429688 35.949219 L 31.527344 42.417969 C 31.46875 42.441406 31.425781 42.441406 31.367188 42.417969 L 13.457031 35.949219 C 13.324219 35.902344 13.304688 35.789062 13.304688 35.730469 Z M 13.304688 43.113281 C 13.304688 43.050781 13.324219 42.941406 13.460938 42.890625 L 21.230469 40.085938 L 30.941406 43.59375 C 31.105469 43.652344 31.273438 43.683594 31.445312 43.683594 C 31.613281 43.683594 31.78125 43.65625 31.949219 43.59375 L 41.65625 40.085938 L 47.933594 42.355469 C 47.484375 42.523438 47.046875 42.726562 46.625 42.957031 L 45.234375 41.851562 C 44.832031 41.527344 44.253906 41.558594 43.886719 41.925781 L 41.925781 43.890625 C 41.558594 44.253906 41.527344 44.832031 41.847656 45.230469 L 42.367188 45.882812 L 31.527344 49.800781 C 31.464844 49.824219 31.425781 49.824219 31.367188 49.804688 L 13.460938 43.332031 C 13.324219 43.285156 13.304688 43.171875 13.304688 43.113281 Z M 31.527344 57.183594 C 31.464844 57.207031 31.425781 57.207031 31.367188 57.183594 L 13.457031 50.710938 C 13.324219 50.664062 13.304688 50.554688 13.304688 50.496094 C 13.304688 50.433594 13.324219 50.320312 13.457031 50.273438 L 21.226562 47.46875 L 30.9375 50.976562 C 31.105469 51.039062 31.273438 51.070312 31.441406 51.070312 C 31.609375 51.070312 31.78125 51.039062 31.949219 50.976562 L 42.71875 47.082031 C 42.472656 47.589844 42.269531 48.117188 42.113281 48.664062 L 40.339844 48.867188 C 39.828125 48.929688 39.449219 49.359375 39.449219 49.871094 L 39.449219 52.648438 C 39.449219 53.160156 39.832031 53.589844 40.34375 53.652344 L 41.074219 53.734375 Z M 59.238281 53.375 C 59.050781 54.082031 58.765625 54.765625 58.390625 55.40625 C 58.183594 55.769531 58.21875 56.210938 58.476562 56.539062 L 59.554688 57.894531 L 57.890625 59.558594 L 56.535156 58.480469 C 56.210938 58.222656 55.765625 58.1875 55.402344 58.394531 C 54.765625 58.765625 54.082031 59.050781 53.375 59.238281 C 52.972656 59.34375 52.679688 59.679688 52.625 60.101562 L 52.433594 61.816406 L 50.082031 61.816406 L 49.882812 60.101562 C 49.839844 59.683594 49.546875 59.347656 49.140625 59.238281 C 48.425781 59.050781 47.742188 58.765625 47.113281 58.394531 C 47.109375 58.394531 47.105469 58.394531 47.101562 58.390625 C 46.742188 58.1875 46.300781 58.222656 45.976562 58.480469 L 44.617188 59.554688 L 42.957031 57.890625 L 44.035156 56.539062 C 44.296875 56.207031 44.328125 55.757812 44.117188 55.40625 C 43.746094 54.765625 43.460938 54.082031 43.277344 53.375 C 43.167969 52.976562 42.832031 52.679688 42.410156 52.628906 L 40.695312 52.433594 L 40.695312 50.082031 L 42.410156 49.886719 C 42.828125 49.839844 43.167969 49.546875 43.277344 49.140625 C 43.464844 48.429688 43.75 47.746094 44.117188 47.113281 C 44.328125 46.75 44.296875 46.304688 44.035156 45.976562 L 42.957031 44.621094 L 44.621094 42.960938 L 45.976562 44.039062 C 46.304688 44.296875 46.75 44.328125 47.109375 44.117188 C 47.746094 43.75 48.429688 43.46875 49.140625 43.277344 C 49.546875 43.171875 49.839844 42.832031 49.882812 42.414062 L 50.082031 40.695312 L 52.433594 40.695312 L 52.628906 42.421875 C 52.679688 42.835938 52.972656 43.171875 53.371094 43.277344 C 54.082031 43.464844 54.761719 43.75 55.398438 44.117188 C 55.757812 44.332031 56.207031 44.300781 56.539062 44.039062 L 57.890625 42.960938 L 59.554688 44.621094 L 58.476562 45.976562 C 58.222656 46.300781 58.1875 46.746094 58.390625 47.105469 C 58.394531 47.109375 58.394531 47.109375 58.394531 47.113281 C 58.765625 47.746094 59.050781 48.425781 59.238281 49.140625 C 59.347656 49.546875 59.683594 49.839844 60.097656 49.886719 L 61.816406 50.082031 L 61.816406 52.433594 L 60.089844 52.628906 C 59.679688 52.679688 59.34375 52.976562 59.238281 53.375 Z M 51.257812 45.601562 C 48.140625 45.601562 45.601562 48.136719 45.601562 51.257812 C 45.601562 54.375 48.136719 56.914062 51.257812 56.914062 C 54.375 56.914062 56.914062 54.375 56.914062 51.257812 C 56.914062 48.140625 54.375 45.601562 51.257812 45.601562 Z M 51.257812 55.664062 C 48.828125 55.664062 46.851562 53.6875 46.851562 51.257812 C 46.851562 48.828125 48.828125 46.851562 51.257812 46.851562 C 53.6875 46.851562 55.664062 48.828125 55.664062 51.257812 C 55.664062 53.6875 53.6875 55.664062 51.257812 55.664062 Z M 51.257812 55.664062 " fill-opacity="1" fill-rule="nonzero"/></g></svg>