<svg xmlns="http://www.w3.org/2000/svg" xmlns:xlink="http://www.w3.org/1999/xlink" width="100" zoomAndPan="magnify" viewBox="0 0 75 74.999997" height="100" preserveAspectRatio="xMidYMid meet" version="1.0"><defs><clipPath id="ba869adc34"><path d="M 16 32 L 62 32 L 62 61.371094 L 16 61.371094 Z M 16 32 " clip-rule="nonzero"/></clipPath><clipPath id="d33e34cce5"><path d="M 34 53 L 43 53 L 43 61.371094 L 34 61.371094 Z M 34 53 " clip-rule="nonzero"/></clipPath><clipPath id="65d09dad73"><path d="M 12.101562 13.371094 L 61 13.371094 L 61 36 L 12.101562 36 Z M 12.101562 13.371094 " clip-rule="nonzero"/></clipPath><clipPath id="c0b43fb846"><path d="M 54 13.371094 L 63 13.371094 L 63 20 L 54 20 Z M 54 13.371094 " clip-rule="nonzero"/></clipPath></defs><g clip-path="url(#ba869adc34)"><path fill="#2c74dd" d="M 60.132812 61.613281 L 51.414062 61.613281 C 51.175781 61.613281 50.96875 61.492188 50.847656 61.285156 C 50.730469 61.105469 50.699219 60.839844 50.820312 60.632812 C 51.621094 58.90625 52.039062 57.03125 52.039062 55.066406 C 52.039062 54.53125 52.007812 53.964844 51.917969 53.429688 L 60.609375 48.433594 C 61.230469 50.542969 61.589844 52.777344 61.589844 55.066406 C 61.589844 57.121094 61.320312 59.144531 60.785156 61.105469 C 60.695312 61.40625 60.429688 61.613281 60.132812 61.613281 Z M 51.679688 52.03125 C 51.085938 49.53125 49.808594 47.332031 48.023438 45.605469 L 52.902344 37.183594 C 56.144531 39.746094 58.671875 43.164062 60.160156 47.125 Z M 47.011719 44.714844 C 44.898438 43.046875 42.308594 42.003906 39.484375 41.886719 L 39.484375 32.304688 C 44.066406 32.453125 48.289062 33.914062 51.800781 36.382812 Z M 38.144531 41.886719 C 35.316406 42.003906 32.730469 43.046875 30.617188 44.714844 L 25.824219 36.351562 C 29.335938 33.914062 33.5625 32.425781 38.144531 32.304688 Z M 29.605469 45.605469 C 27.820312 47.332031 26.539062 49.53125 25.945312 52.003906 L 17.464844 47.125 C 18.953125 43.164062 21.480469 39.746094 24.726562 37.183594 Z M 25.707031 53.429688 C 25.617188 53.964844 25.585938 54.503906 25.585938 55.066406 C 25.585938 57.03125 26.003906 58.90625 26.808594 60.632812 C 26.925781 60.839844 26.898438 61.105469 26.777344 61.285156 C 26.660156 61.492188 26.449219 61.613281 26.210938 61.613281 L 17.496094 61.613281 C 17.199219 61.613281 16.929688 61.40625 16.839844 61.105469 C 16.304688 59.144531 16.035156 57.121094 16.035156 55.066406 C 16.035156 52.777344 16.363281 50.542969 17.019531 48.433594 Z M 25.707031 53.429688 " fill-opacity="1" fill-rule="evenodd"/></g><g clip-path="url(#d33e34cce5)"><path fill="#2c74dd" d="M 38.796875 61.613281 C 36.597656 61.613281 34.78125 59.796875 34.78125 57.597656 C 34.78125 55.363281 36.597656 53.550781 38.796875 53.550781 C 41.03125 53.550781 42.84375 55.363281 42.84375 57.597656 C 42.84375 59.796875 41.03125 61.613281 38.796875 61.613281 Z M 38.796875 54.917969 C 37.339844 54.917969 36.148438 56.109375 36.148438 57.597656 C 36.148438 59.054688 37.339844 60.246094 38.796875 60.246094 C 40.285156 60.246094 41.476562 59.054688 41.476562 57.597656 C 41.476562 56.109375 40.285156 54.917969 38.796875 54.917969 Z M 38.796875 54.917969 " fill-opacity="1" fill-rule="evenodd"/></g><path fill="#2c74dd" d="M 39.421875 54.976562 C 39.394531 54.976562 39.332031 54.976562 39.304688 54.949219 C 38.945312 54.890625 38.679688 54.53125 38.769531 54.175781 L 40.136719 46.824219 C 40.195312 46.46875 40.554688 46.230469 40.910156 46.289062 C 41.269531 46.378906 41.535156 46.707031 41.445312 47.09375 L 40.078125 54.414062 C 40.019531 54.738281 39.75 54.976562 39.421875 54.976562 Z M 39.421875 54.976562 " fill-opacity="1" fill-rule="evenodd"/><g clip-path="url(#65d09dad73)"><path fill="#2c74dd" d="M 12.792969 35.101562 C 12.617188 35.101562 12.464844 35.042969 12.316406 34.925781 C 12.050781 34.6875 12.019531 34.238281 12.289062 33.972656 L 23.445312 21.652344 C 23.566406 21.503906 23.742188 21.417969 23.921875 21.417969 C 24.101562 21.417969 24.277344 21.476562 24.425781 21.625 L 29.8125 27.011719 L 37.875 21.265625 C 38.054688 21.148438 38.292969 21.117188 38.5 21.179688 L 53.644531 26.890625 L 59.058594 13.800781 C 59.210938 13.441406 59.597656 13.292969 59.921875 13.441406 C 60.28125 13.5625 60.457031 13.976562 60.308594 14.304688 L 54.65625 27.992188 C 54.507812 28.347656 54.121094 28.496094 53.792969 28.378906 L 38.351562 22.578125 L 30.109375 28.4375 C 29.84375 28.617188 29.484375 28.585938 29.246094 28.347656 L 23.953125 23.082031 L 13.300781 34.863281 C 13.152344 35.011719 12.972656 35.101562 12.792969 35.101562 Z M 12.792969 35.101562 " fill-opacity="1" fill-rule="evenodd"/></g><g clip-path="url(#c0b43fb846)"><path fill="#2c74dd" d="M 62.214844 19.570312 C 61.976562 19.570312 61.738281 19.453125 61.617188 19.214844 L 59.386719 14.960938 L 55.132812 17.191406 C 54.804688 17.371094 54.417969 17.25 54.242188 16.894531 C 54.0625 16.566406 54.179688 16.179688 54.507812 16 L 59.359375 13.472656 C 59.683594 13.292969 60.101562 13.414062 60.28125 13.738281 L 62.808594 18.589844 C 62.988281 18.917969 62.867188 19.332031 62.511719 19.511719 C 62.421875 19.570312 62.304688 19.570312 62.214844 19.570312 Z M 62.214844 19.570312 " fill-opacity="1" fill-rule="evenodd"/></g></svg>