<svg xmlns="http://www.w3.org/2000/svg" xmlns:xlink="http://www.w3.org/1999/xlink" width="100" zoomAndPan="magnify" viewBox="0 0 75 74.999997" height="100" preserveAspectRatio="xMidYMid meet" version="1.0"><defs><clipPath id="cb61c86a4c"><path d="M 13 11.074219 L 62 11.074219 L 62 63.574219 L 13 63.574219 Z M 13 11.074219 " clip-rule="nonzero"/></clipPath></defs><g clip-path="url(#cb61c86a4c)"><path fill="#2c74dd" d="M 20.324219 47.882812 C 20.144531 48.285156 20.042969 48.511719 20.042969 48.511719 C 19.554688 49.632812 18.238281 50.140625 17.121094 49.644531 C 17.121094 49.644531 14.375 48.433594 14.375 48.433594 C 13.257812 47.945312 12.75 46.621094 13.238281 45.507812 C 13.238281 45.503906 13.238281 45.503906 13.238281 45.503906 L 18.507812 33.585938 L 18.507812 27.621094 C 18.507812 27.269531 18.722656 26.957031 19.050781 26.832031 C 19.050781 26.832031 21.652344 25.832031 21.652344 25.832031 C 22.023438 24.441406 22.574219 23.109375 23.296875 21.867188 L 22.164062 19.320312 C 22.019531 19 22.089844 18.625 22.339844 18.375 L 25.8125 14.902344 C 26.058594 14.65625 26.433594 14.585938 26.753906 14.726562 C 26.753906 14.726562 29.300781 15.859375 29.300781 15.859375 C 30.542969 15.140625 31.875 14.589844 33.261719 14.21875 L 34.265625 11.617188 C 34.390625 11.289062 34.707031 11.074219 35.054688 11.074219 L 39.96875 11.074219 C 40.316406 11.074219 40.632812 11.289062 40.757812 11.617188 C 40.757812 11.617188 41.757812 14.21875 41.757812 14.21875 C 43.144531 14.589844 44.472656 15.140625 45.71875 15.859375 L 48.265625 14.726562 C 48.585938 14.585938 48.960938 14.65625 49.207031 14.902344 L 52.679688 18.375 C 52.929688 18.625 52.996094 18.996094 52.855469 19.316406 C 52.855469 19.316406 51.726562 21.863281 51.726562 21.863281 C 52.449219 23.109375 53 24.441406 53.371094 25.832031 L 55.96875 26.832031 C 56.292969 26.957031 56.507812 27.269531 56.507812 27.621094 L 56.507812 33.140625 L 61.816406 46.832031 C 61.816406 46.832031 61.816406 46.832031 61.816406 46.835938 C 62.257812 47.976562 61.6875 49.261719 60.554688 49.699219 L 57.753906 50.789062 C 57.753906 50.789062 57.75 50.789062 57.75 50.792969 C 56.609375 51.230469 55.320312 50.660156 54.882812 49.519531 L 54.660156 48.945312 L 52.480469 49.855469 C 52.582031 50.484375 52.480469 51.148438 52.148438 51.746094 C 51.742188 52.484375 51.066406 52.988281 50.308594 53.195312 C 50.539062 53.945312 50.480469 54.78125 50.078125 55.519531 L 50.074219 55.519531 C 49.472656 56.613281 48.285156 57.183594 47.121094 57.058594 C 47.140625 57.582031 47.027344 58.121094 46.757812 58.609375 C 46.753906 58.613281 46.753906 58.613281 46.753906 58.613281 C 46.113281 59.773438 44.800781 60.347656 43.5625 60.113281 C 43.566406 60.605469 43.449219 61.105469 43.195312 61.566406 C 42.402344 63.011719 40.542969 63.566406 39.109375 62.742188 L 38.382812 62.324219 C 37.5 63.523438 35.832031 63.929688 34.476562 63.207031 L 34.472656 63.207031 C 33.820312 62.855469 33.34375 62.300781 33.082031 61.660156 C 32.269531 61.988281 31.320312 61.96875 30.488281 61.527344 C 30.488281 61.527344 30.488281 61.527344 30.484375 61.523438 C 29.902344 61.210938 29.460938 60.730469 29.1875 60.175781 C 28.324219 60.621094 27.261719 60.648438 26.339844 60.15625 C 25.1875 59.542969 24.589844 58.285156 24.746094 57.058594 C 24.257812 57.058594 23.765625 56.941406 23.308594 56.699219 C 21.816406 55.90625 21.25 54.039062 22.050781 52.550781 L 22.792969 51.160156 C 22.601562 50.660156 22.503906 50.058594 22.378906 49.488281 C 22.335938 49.28125 22.285156 49.078125 22.207031 48.902344 C 22.140625 48.757812 22.058594 48.628906 21.902344 48.570312 C 21.6875 48.488281 21.0625 48.214844 20.324219 47.882812 Z M 20.203125 30.394531 C 20.828125 29.90625 21.699219 29.765625 22.472656 30.105469 C 22.472656 30.105469 22.472656 30.105469 22.476562 30.105469 L 25.222656 31.320312 C 26.332031 31.8125 26.847656 33.128906 26.347656 34.246094 C 26.347656 34.246094 26.179688 34.625 25.902344 35.261719 L 27.636719 36.0625 C 27.65625 36.070312 27.675781 36.082031 27.695312 36.09375 C 28.082031 36.308594 28.46875 36.398438 28.863281 36.414062 C 27.558594 34.640625 26.789062 32.445312 26.789062 30.074219 C 26.789062 24.152344 31.589844 19.355469 37.507812 19.355469 C 43.429688 19.355469 48.230469 24.152344 48.230469 30.074219 C 48.230469 32.589844 47.363281 34.902344 45.910156 36.730469 C 46.132812 36.8125 46.351562 36.886719 46.566406 36.941406 C 47.101562 37.078125 47.617188 37.113281 48.136719 36.847656 L 49.652344 36.035156 L 49.242188 34.980469 C 49.242188 34.976562 49.238281 34.976562 49.238281 34.976562 C 48.800781 33.835938 49.371094 32.546875 50.511719 32.109375 L 53.308594 31.019531 L 53.3125 31.019531 C 53.8125 30.828125 54.339844 30.828125 54.816406 30.988281 L 54.816406 28.203125 L 52.351562 27.253906 C 52.089844 27.152344 51.894531 26.929688 51.832031 26.660156 C 51.472656 25.140625 50.875 23.695312 50.054688 22.367188 C 49.910156 22.128906 49.886719 21.835938 50 21.578125 L 51.074219 19.164062 L 48.421875 16.511719 L 46.003906 17.585938 C 45.75 17.699219 45.453125 17.679688 45.21875 17.535156 C 43.890625 16.714844 42.445312 16.117188 40.929688 15.757812 C 40.65625 15.691406 40.433594 15.496094 40.335938 15.238281 L 39.386719 12.765625 L 35.636719 12.765625 L 34.683594 15.238281 C 34.582031 15.5 34.359375 15.691406 34.089844 15.757812 C 32.574219 16.117188 31.128906 16.714844 29.800781 17.535156 C 29.5625 17.679688 29.269531 17.699219 29.011719 17.585938 C 29.011719 17.585938 26.597656 16.511719 26.597656 16.511719 L 23.945312 19.160156 L 25.019531 21.578125 C 25.132812 21.832031 25.113281 22.128906 24.96875 22.367188 C 24.148438 23.695312 23.550781 25.140625 23.1875 26.660156 C 23.121094 26.933594 22.925781 27.152344 22.667969 27.253906 L 20.203125 28.203125 Z M 25.214844 36.808594 C 24.015625 39.527344 22.140625 43.773438 21.007812 46.335938 C 21.714844 46.652344 22.308594 46.910156 22.511719 46.992188 L 22.515625 46.992188 C 23.28125 47.289062 23.691406 47.90625 23.921875 48.675781 C 23.96875 48.839844 24.011719 49.007812 24.046875 49.183594 C 24.976562 48.332031 26.386719 48.113281 27.5625 48.738281 C 28.4375 49.207031 28.996094 50.050781 29.140625 50.96875 C 29.78125 50.863281 30.460938 50.960938 31.078125 51.289062 C 31.078125 51.289062 31.078125 51.289062 31.082031 51.289062 C 31.816406 51.683594 32.328125 52.34375 32.558594 53.085938 C 33.308594 52.863281 34.140625 52.925781 34.878906 53.320312 C 35.617188 53.710938 36.125 54.371094 36.355469 55.117188 C 37.101562 54.894531 37.933594 54.953125 38.675781 55.347656 C 38.679688 55.347656 38.683594 55.351562 38.6875 55.355469 C 39.035156 55.546875 39.339844 55.792969 39.589844 56.097656 L 43.496094 58.3125 C 43.5 58.316406 43.5 58.316406 43.503906 58.316406 C 44.132812 58.660156 44.925781 58.421875 45.273438 57.796875 C 45.617188 57.167969 45.375 56.375 44.753906 56.019531 C 44.75 56.015625 44.75 56.015625 44.746094 56.011719 C 44.703125 55.988281 44.664062 55.960938 44.628906 55.933594 L 39.25 52.90625 C 38.84375 52.675781 38.699219 52.160156 38.925781 51.753906 C 39.15625 51.347656 39.671875 51.203125 40.078125 51.429688 L 46.816406 55.21875 L 46.816406 55.222656 C 46.820312 55.222656 46.820312 55.222656 46.820312 55.222656 C 47.449219 55.566406 48.246094 55.332031 48.59375 54.703125 C 48.9375 54.074219 48.695312 53.28125 48.070312 52.929688 C 46.355469 51.96875 44.640625 51.007812 42.9375 50.035156 C 42.53125 49.800781 42.390625 49.285156 42.621094 48.878906 C 42.855469 48.472656 43.371094 48.332031 43.777344 48.566406 C 45.476562 49.535156 47.1875 50.496094 48.898438 51.449219 C 49.523438 51.800781 50.320312 51.558594 50.664062 50.933594 C 50.664062 50.929688 50.664062 50.929688 50.664062 50.929688 C 50.878906 50.546875 50.867188 50.105469 50.6875 49.742188 C 50.6875 49.738281 50.6875 49.738281 50.683594 49.734375 C 50.570312 49.496094 50.386719 49.292969 50.140625 49.15625 C 50.136719 49.152344 50.136719 49.152344 50.136719 49.152344 L 42.695312 44.90625 C 41.933594 44.476562 41.101562 44.554688 40.230469 44.789062 C 39.15625 45.078125 38.03125 45.609375 36.894531 46.03125 C 35.320312 46.621094 33.722656 46.996094 32.171875 46.558594 C 31.105469 46.261719 30.050781 45.589844 29.050781 44.304688 C 29.039062 44.289062 29.027344 44.273438 29.015625 44.253906 C 28.839844 43.992188 28.777344 43.703125 28.84375 43.398438 C 28.910156 43.085938 29.097656 42.828125 29.367188 42.671875 C 31.382812 41.492188 33.167969 40.179688 34.625 38.707031 L 34.628906 38.703125 C 34.953125 38.378906 35.292969 38.054688 35.648438 37.753906 C 33.890625 37.023438 32.382812 37.507812 30.996094 37.824219 C 29.5625 38.152344 28.226562 38.320312 26.898438 37.585938 Z M 54.046875 47.367188 L 50.269531 37.625 L 48.929688 38.34375 C 48.929688 38.34375 48.925781 38.34375 48.921875 38.347656 C 47.496094 39.089844 46.078125 38.640625 44.492188 37.992188 C 42.699219 37.261719 40.597656 36.328125 37.679688 38.324219 L 37.675781 38.324219 C 37.015625 38.78125 36.394531 39.328125 35.832031 39.894531 C 34.421875 41.320312 32.726562 42.609375 30.824219 43.773438 C 32.992188 46.023438 35.402344 44.820312 37.667969 43.90625 C 39.765625 43.058594 41.785156 42.441406 43.53125 43.4375 C 43.53125 43.4375 50.976562 47.683594 50.976562 47.683594 C 51.28125 47.855469 51.542969 48.070312 51.761719 48.320312 Z M 37.183594 36.625 C 39.550781 35.167969 41.46875 35.230469 43.132812 35.699219 C 42.246094 33.457031 40.0625 31.875 37.507812 31.875 C 34.878906 31.875 32.636719 33.558594 31.808594 35.90625 C 33.414062 35.574219 35.164062 35.445312 37.183594 36.625 Z M 39.210938 60.847656 L 39.953125 61.273438 C 40.570312 61.628906 41.371094 61.375 41.710938 60.75 C 42.058594 60.121094 41.824219 59.324219 41.195312 58.96875 C 41.152344 58.945312 41.109375 58.914062 41.074219 58.886719 L 40.269531 58.429688 C 40.226562 58.796875 40.113281 59.160156 39.933594 59.496094 Z M 44.816406 35.371094 C 45.898438 33.886719 46.535156 32.054688 46.535156 30.074219 C 46.535156 25.089844 42.496094 21.046875 37.507812 21.046875 C 32.523438 21.046875 28.484375 25.089844 28.484375 30.074219 C 28.484375 32.054688 29.121094 33.886719 30.199219 35.371094 C 30.933594 33.269531 32.546875 31.582031 34.601562 30.746094 C 33.726562 29.953125 33.175781 28.808594 33.175781 27.539062 C 33.175781 25.15625 35.125 23.207031 37.507812 23.207031 C 39.894531 23.207031 41.84375 25.15625 41.84375 27.539062 C 41.84375 28.808594 41.292969 29.953125 40.417969 30.746094 C 42.46875 31.582031 44.085938 33.269531 44.816406 35.371094 Z M 37.507812 30.179688 C 38.960938 30.179688 40.148438 28.992188 40.148438 27.539062 C 40.148438 26.089844 38.960938 24.902344 37.507812 24.902344 C 36.054688 24.902344 34.867188 26.089844 34.867188 27.539062 C 34.867188 28.992188 36.054688 30.179688 37.507812 30.179688 Z M 21.09375 31.925781 C 21.09375 31.925781 14.789062 46.1875 14.789062 46.1875 C 14.675781 46.453125 14.792969 46.765625 15.054688 46.882812 L 15.058594 46.882812 L 17.804688 48.09375 C 17.804688 48.09375 17.804688 48.09375 17.808594 48.097656 C 18.070312 48.210938 18.378906 48.09375 18.492188 47.832031 C 18.492188 47.832031 18.492188 47.832031 18.496094 47.832031 L 24.800781 33.5625 C 24.800781 33.558594 24.800781 33.558594 24.800781 33.558594 C 24.917969 33.296875 24.796875 32.984375 24.535156 32.871094 C 24.535156 32.871094 21.792969 31.65625 21.789062 31.65625 C 21.523438 31.539062 21.214844 31.660156 21.09375 31.925781 Z M 22.417969 32.851562 C 23.097656 32.878906 23.613281 33.453125 23.585938 34.132812 C 23.550781 34.8125 22.976562 35.335938 22.296875 35.308594 C 21.625 35.273438 21.101562 34.699219 21.128906 34.019531 C 21.164062 33.34375 21.738281 32.816406 22.417969 32.851562 Z M 27.378906 51.976562 C 27.652344 51.332031 27.390625 50.570312 26.765625 50.230469 C 26.097656 49.878906 25.261719 50.128906 24.910156 50.792969 L 23.542969 53.347656 L 23.542969 53.351562 C 23.183594 54.015625 23.4375 54.847656 24.101562 55.203125 L 24.105469 55.203125 C 24.589844 55.464844 25.167969 55.398438 25.582031 55.085938 Z M 26.980469 56.046875 L 26.578125 56.804688 C 26.578125 56.808594 26.574219 56.808594 26.574219 56.808594 C 26.21875 57.472656 26.472656 58.308594 27.136719 58.664062 C 27.808594 59.019531 28.636719 58.761719 28.996094 58.09375 L 30.984375 54.246094 C 31.089844 53.675781 30.820312 53.070312 30.28125 52.78125 C 29.792969 52.523438 29.210938 52.585938 28.796875 52.910156 Z M 30.570312 58.742188 C 30.539062 59.257812 30.804688 59.773438 31.289062 60.035156 C 31.882812 60.347656 32.613281 60.179688 33.015625 59.664062 L 34.777344 56.28125 C 34.882812 55.707031 34.621094 55.101562 34.082031 54.8125 C 33.546875 54.523438 32.898438 54.632812 32.480469 55.035156 Z M 34.554688 60.375 C 34.507812 60.910156 34.769531 61.445312 35.269531 61.710938 C 35.9375 62.066406 36.773438 61.816406 37.128906 61.152344 L 38.441406 58.695312 C 38.691406 58.230469 38.640625 57.660156 38.328125 57.230469 C 38.207031 57.066406 38.050781 56.9375 37.871094 56.835938 C 37.332031 56.554688 36.691406 56.667969 36.273438 57.070312 Z M 54.601562 32.902344 C 54.496094 32.632812 54.191406 32.496094 53.921875 32.597656 L 51.125 33.6875 C 51.121094 33.6875 51.121094 33.6875 51.121094 33.6875 C 50.847656 33.792969 50.71875 34.097656 50.820312 34.371094 L 56.460938 48.90625 C 56.460938 48.910156 56.460938 48.910156 56.464844 48.910156 C 56.566406 49.179688 56.871094 49.3125 57.144531 49.210938 L 59.941406 48.121094 C 60.210938 48.019531 60.339844 47.710938 60.238281 47.441406 Z M 53.238281 36.222656 C 52.558594 36.222656 52.007812 35.671875 52.007812 35 C 52.007812 34.320312 52.558594 33.765625 53.238281 33.765625 C 53.917969 33.765625 54.464844 34.320312 54.464844 35 C 54.464844 35.671875 53.917969 36.222656 53.238281 36.222656 Z M 53.238281 36.222656 " fill-opacity="1" fill-rule="evenodd"/></g></svg>