<svg xmlns="http://www.w3.org/2000/svg" xmlns:xlink="http://www.w3.org/1999/xlink" width="100" zoomAndPan="magnify" viewBox="0 0 75 74.999997" height="100" preserveAspectRatio="xMidYMid meet" version="1.0"><defs><clipPath id="9c6f9d64e4"><path d="M 9.761719 10.144531 L 65.261719 10.144531 L 65.261719 64.894531 L 9.761719 64.894531 Z M 9.761719 10.144531 " clip-rule="nonzero"/></clipPath></defs><g clip-path="url(#9c6f9d64e4)"><path fill="#2c74dd" d="M 61.585938 38.527344 C 60.203125 37.6875 58.460938 37.191406 56.296875 37.011719 C 56.730469 36.695312 57.128906 36.335938 57.488281 35.933594 C 57.84375 35.53125 58.160156 35.09375 58.425781 34.628906 C 58.695312 34.160156 58.910156 33.667969 59.074219 33.15625 C 59.238281 32.644531 59.347656 32.117188 59.402344 31.582031 C 59.457031 31.046875 59.457031 30.511719 59.398438 29.976562 C 59.339844 29.4375 59.226562 28.914062 59.0625 28.402344 C 58.894531 27.890625 58.675781 27.402344 58.402344 26.933594 C 58.132812 26.46875 57.816406 26.035156 57.457031 25.636719 C 57.09375 25.238281 56.695312 24.878906 56.261719 24.5625 C 55.824219 24.246094 55.359375 23.976562 54.867188 23.757812 C 54.375 23.539062 53.863281 23.375 53.335938 23.261719 C 52.808594 23.152344 52.277344 23.09375 51.738281 23.09375 C 51.199219 23.09375 50.667969 23.152344 50.140625 23.261719 C 49.613281 23.375 49.101562 23.539062 48.609375 23.757812 C 48.117188 23.976562 47.652344 24.246094 47.214844 24.5625 C 46.78125 24.878906 46.382812 25.234375 46.019531 25.636719 C 45.660156 26.035156 45.34375 26.46875 45.074219 26.933594 C 44.800781 27.398438 44.582031 27.890625 44.414062 28.402344 C 44.246094 28.914062 44.132812 29.4375 44.078125 29.972656 C 44.019531 30.507812 44.015625 31.046875 44.070312 31.582031 C 44.125 32.117188 44.234375 32.640625 44.402344 33.15625 C 44.566406 33.667969 44.78125 34.160156 45.050781 34.625 C 45.316406 35.09375 45.628906 35.527344 45.988281 35.929688 C 46.347656 36.332031 46.742188 36.695312 47.179688 37.011719 C 45.585938 37.140625 44.226562 37.445312 43.0625 37.933594 C 41.277344 38.679688 39.976562 39.855469 39.183594 41.433594 C 36.875 39.75 34.300781 38.753906 31.464844 38.445312 C 31.957031 38.109375 32.410156 37.726562 32.820312 37.296875 C 33.234375 36.867188 33.597656 36.394531 33.90625 35.886719 C 34.21875 35.378906 34.476562 34.84375 34.671875 34.28125 C 34.871094 33.71875 35.007812 33.140625 35.082031 32.550781 C 35.15625 31.960938 35.167969 31.367188 35.117188 30.773438 C 35.066406 30.179688 34.953125 29.597656 34.777344 29.027344 C 34.605469 28.457031 34.371094 27.910156 34.078125 27.390625 C 33.789062 26.871094 33.445312 26.386719 33.050781 25.941406 C 32.65625 25.492188 32.21875 25.09375 31.742188 24.738281 C 31.261719 24.382812 30.75 24.082031 30.207031 23.839844 C 29.664062 23.59375 29.101562 23.40625 28.515625 23.28125 C 27.933594 23.15625 27.34375 23.09375 26.75 23.09375 C 26.152344 23.09375 25.5625 23.15625 24.980469 23.28125 C 24.398438 23.410156 23.832031 23.59375 23.289062 23.839844 C 22.746094 24.085938 22.234375 24.386719 21.757812 24.738281 C 21.277344 25.09375 20.839844 25.496094 20.445312 25.941406 C 20.050781 26.390625 19.710938 26.875 19.417969 27.394531 C 19.128906 27.914062 18.894531 28.460938 18.71875 29.03125 C 18.546875 29.601562 18.433594 30.183594 18.382812 30.777344 C 18.332031 31.371094 18.34375 31.964844 18.417969 32.554688 C 18.496094 33.148438 18.632812 33.722656 18.828125 34.285156 C 19.027344 34.847656 19.28125 35.382812 19.59375 35.890625 C 19.90625 36.398438 20.269531 36.867188 20.683594 37.300781 C 21.09375 37.730469 21.546875 38.113281 22.039062 38.449219 C 18.957031 38.800781 16.199219 39.941406 13.765625 41.871094 C 11.160156 43.914062 9.78125 46.746094 9.78125 50.054688 L 9.773438 58.941406 C 9.773438 59.730469 9.984375 60.460938 10.402344 61.128906 C 10.824219 61.800781 11.386719 62.304688 12.097656 62.652344 C 12.808594 62.996094 13.558594 63.125 14.34375 63.039062 C 15.128906 62.953125 15.832031 62.664062 16.453125 62.175781 C 16.460938 62.53125 16.535156 62.875 16.679688 63.203125 C 16.820312 63.53125 17.019531 63.820312 17.273438 64.070312 C 17.53125 64.320312 17.824219 64.511719 18.152344 64.648438 C 18.484375 64.78125 18.828125 64.851562 19.183594 64.851562 L 34.3125 64.851562 C 34.675781 64.851562 35.023438 64.78125 35.359375 64.640625 C 35.695312 64.503906 35.992188 64.304688 36.246094 64.046875 C 36.503906 63.792969 36.699219 63.496094 36.839844 63.160156 C 36.980469 62.828125 37.046875 62.476562 37.050781 62.113281 L 37.050781 51.910156 L 38.257812 53.085938 L 38.257812 57.113281 C 38.257812 58.222656 38.664062 59.167969 39.4375 59.84375 C 40.160156 60.460938 41 60.765625 41.949219 60.753906 C 42.703125 60.757812 43.398438 60.554688 44.03125 60.152344 L 44.03125 61.976562 C 44.03125 62.230469 44.082031 62.480469 44.179688 62.714844 C 44.277344 62.953125 44.417969 63.164062 44.601562 63.34375 C 44.78125 63.527344 44.992188 63.664062 45.230469 63.765625 C 45.464844 63.863281 45.710938 63.914062 45.96875 63.914062 L 57.503906 63.914062 C 57.761719 63.914062 58.007812 63.863281 58.246094 63.765625 C 58.480469 63.667969 58.691406 63.527344 58.875 63.34375 C 59.054688 63.164062 59.195312 62.953125 59.292969 62.714844 C 59.394531 62.480469 59.441406 62.230469 59.445312 61.976562 L 59.445312 60.152344 C 60.078125 60.554688 60.773438 60.757812 61.523438 60.753906 C 63.359375 60.753906 65.21875 59.503906 65.21875 57.113281 L 65.21875 45.804688 C 65.21875 42.4375 63.996094 39.988281 61.585938 38.527344 Z M 45.605469 30.804688 C 45.605469 30.402344 45.644531 30.003906 45.722656 29.609375 C 45.800781 29.214844 45.917969 28.832031 46.070312 28.457031 C 46.226562 28.085938 46.414062 27.734375 46.636719 27.398438 C 46.863281 27.0625 47.117188 26.753906 47.402344 26.46875 C 47.683594 26.183594 47.996094 25.929688 48.328125 25.707031 C 48.664062 25.480469 49.019531 25.292969 49.390625 25.140625 C 49.761719 24.984375 50.144531 24.867188 50.539062 24.789062 C 50.9375 24.710938 51.335938 24.671875 51.738281 24.671875 C 52.140625 24.671875 52.539062 24.710938 52.933594 24.789062 C 53.328125 24.867188 53.710938 24.984375 54.085938 25.136719 C 54.457031 25.292969 54.8125 25.480469 55.144531 25.707031 C 55.480469 25.929688 55.789062 26.183594 56.074219 26.46875 C 56.359375 26.753906 56.613281 27.0625 56.835938 27.398438 C 57.0625 27.734375 57.25 28.085938 57.40625 28.457031 C 57.558594 28.832031 57.675781 29.214844 57.753906 29.609375 C 57.832031 30.003906 57.871094 30.402344 57.871094 30.804688 C 57.871094 31.207031 57.832031 31.605469 57.753906 32.003906 C 57.675781 32.398438 57.558594 32.78125 57.40625 33.152344 C 57.25 33.523438 57.0625 33.878906 56.839844 34.214844 C 56.613281 34.546875 56.359375 34.859375 56.074219 35.144531 C 55.789062 35.425781 55.480469 35.683594 55.144531 35.90625 C 54.8125 36.128906 54.457031 36.320312 54.085938 36.472656 C 53.714844 36.625 53.332031 36.742188 52.933594 36.820312 C 52.539062 36.898438 52.140625 36.941406 51.738281 36.941406 C 51.335938 36.9375 50.9375 36.898438 50.542969 36.820312 C 50.148438 36.742188 49.765625 36.625 49.390625 36.472656 C 49.019531 36.316406 48.667969 36.128906 48.332031 35.902344 C 47.996094 35.679688 47.6875 35.425781 47.402344 35.140625 C 47.117188 34.855469 46.863281 34.546875 46.640625 34.210938 C 46.417969 33.878906 46.226562 33.523438 46.074219 33.152344 C 45.917969 32.78125 45.800781 32.398438 45.722656 32.003906 C 45.644531 31.605469 45.605469 31.207031 45.605469 30.804688 Z M 19.921875 31.5 C 19.921875 31.050781 19.964844 30.605469 20.054688 30.167969 C 20.140625 29.726562 20.269531 29.300781 20.441406 28.886719 C 20.613281 28.472656 20.824219 28.078125 21.070312 27.707031 C 21.320312 27.332031 21.605469 26.988281 21.921875 26.671875 C 22.238281 26.351562 22.582031 26.070312 22.957031 25.820312 C 23.328125 25.570312 23.722656 25.359375 24.136719 25.1875 C 24.550781 25.015625 24.976562 24.886719 25.417969 24.800781 C 25.855469 24.710938 26.300781 24.667969 26.75 24.667969 C 27.195312 24.667969 27.640625 24.710938 28.082031 24.800781 C 28.519531 24.886719 28.945312 25.015625 29.363281 25.1875 C 29.777344 25.359375 30.167969 25.570312 30.542969 25.816406 C 30.914062 26.066406 31.261719 26.351562 31.578125 26.667969 C 31.894531 26.984375 32.175781 27.328125 32.425781 27.703125 C 32.675781 28.074219 32.886719 28.46875 33.058594 28.882812 C 33.230469 29.296875 33.359375 29.722656 33.445312 30.164062 C 33.535156 30.601562 33.578125 31.046875 33.578125 31.496094 C 33.578125 31.941406 33.535156 32.386719 33.445312 32.828125 C 33.359375 33.265625 33.230469 33.695312 33.058594 34.109375 C 32.886719 34.523438 32.675781 34.914062 32.429688 35.289062 C 32.179688 35.660156 31.894531 36.007812 31.578125 36.324219 C 31.261719 36.640625 30.917969 36.921875 30.542969 37.171875 C 30.171875 37.421875 29.777344 37.632812 29.363281 37.804688 C 28.949219 37.976562 28.523438 38.105469 28.082031 38.191406 C 27.644531 38.28125 27.199219 38.324219 26.75 38.324219 C 26.300781 38.324219 25.859375 38.277344 25.417969 38.191406 C 24.980469 38.101562 24.554688 37.972656 24.140625 37.800781 C 23.726562 37.628906 23.332031 37.421875 22.960938 37.171875 C 22.585938 36.921875 22.242188 36.640625 21.925781 36.324219 C 21.609375 36.003906 21.328125 35.660156 21.078125 35.289062 C 20.828125 34.917969 20.617188 34.523438 20.445312 34.109375 C 20.273438 33.695312 20.144531 33.269531 20.054688 32.832031 C 19.96875 32.390625 19.925781 31.949219 19.921875 31.5 Z M 36.8125 49.488281 C 36.5625 49.246094 36.277344 49.191406 35.957031 49.328125 C 35.636719 49.460938 35.476562 49.703125 35.476562 50.050781 L 35.476562 62.113281 C 35.476562 62.269531 35.449219 62.417969 35.390625 62.558594 C 35.328125 62.703125 35.246094 62.828125 35.136719 62.9375 C 35.027344 63.046875 34.902344 63.132812 34.757812 63.191406 C 34.617188 63.25 34.46875 63.277344 34.3125 63.277344 L 19.183594 63.277344 C 19.03125 63.277344 18.882812 63.25 18.742188 63.191406 C 18.597656 63.128906 18.472656 63.046875 18.363281 62.9375 C 18.253906 62.828125 18.171875 62.703125 18.113281 62.558594 C 18.054688 62.417969 18.023438 62.269531 18.023438 62.113281 L 18.023438 50.050781 C 18.023438 49.832031 17.945312 49.648438 17.792969 49.496094 C 17.640625 49.339844 17.453125 49.265625 17.238281 49.265625 C 17.019531 49.265625 16.835938 49.339844 16.683594 49.496094 C 16.527344 49.648438 16.453125 49.832031 16.453125 50.050781 L 16.453125 58.941406 C 16.453125 59.277344 16.386719 59.605469 16.257812 59.917969 C 16.128906 60.230469 15.945312 60.503906 15.703125 60.746094 C 15.464844 60.984375 15.1875 61.167969 14.875 61.296875 C 14.5625 61.429688 14.238281 61.492188 13.898438 61.492188 C 13.558594 61.492188 13.234375 61.429688 12.921875 61.296875 C 12.609375 61.167969 12.332031 60.984375 12.09375 60.746094 C 11.855469 60.503906 11.667969 60.230469 11.539062 59.917969 C 11.410156 59.605469 11.34375 59.277344 11.34375 58.941406 L 11.351562 50.054688 C 11.351562 47.242188 12.523438 44.839844 14.734375 43.105469 C 17.457031 40.976562 20.632812 39.894531 24.171875 39.894531 L 29.328125 39.894531 C 33.707031 39.894531 37.464844 41.5 40.492188 44.664062 L 41.957031 46.191406 C 42.082031 46.320312 42.234375 46.398438 42.414062 46.425781 C 42.59375 46.449219 42.761719 46.417969 42.917969 46.328125 L 47.714844 43.554688 C 48.007812 43.386719 48.324219 43.28125 48.65625 43.242188 C 48.992188 43.199219 49.324219 43.21875 49.648438 43.308594 C 49.972656 43.398438 50.269531 43.542969 50.539062 43.75 C 50.804688 43.957031 51.023438 44.203125 51.191406 44.496094 C 51.359375 44.789062 51.46875 45.101562 51.511719 45.4375 C 51.554688 45.769531 51.535156 46.101562 51.449219 46.425781 C 51.363281 46.753906 51.214844 47.050781 51.011719 47.320312 C 50.808594 47.585938 50.558594 47.808594 50.269531 47.976562 L 44.460938 51.308594 C 44.4375 51.316406 44.417969 51.328125 44.398438 51.34375 L 43.082031 52.097656 C 41.992188 52.722656 40.546875 53.121094 39.769531 52.363281 L 39.613281 52.210938 C 39.601562 52.195312 39.585938 52.183594 39.570312 52.171875 Z M 41.953125 59.179688 C 40.894531 59.179688 39.832031 58.542969 39.832031 57.113281 L 39.832031 54.1875 C 40.957031 54.554688 42.378906 54.3125 43.863281 53.460938 L 44.03125 53.367188 L 44.03125 57.113281 C 44.03125 58.542969 42.988281 59.179688 41.949219 59.179688 Z M 63.648438 57.113281 C 63.648438 58.542969 62.582031 59.179688 61.527344 59.179688 C 60.488281 59.179688 59.445312 58.542969 59.445312 57.113281 L 59.445312 47.058594 C 59.445312 46.84375 59.367188 46.65625 59.214844 46.503906 C 59.058594 46.351562 58.875 46.273438 58.660156 46.273438 C 58.441406 46.273438 58.257812 46.351562 58.101562 46.503906 C 57.949219 46.65625 57.871094 46.84375 57.871094 47.058594 L 57.871094 61.976562 C 57.871094 62.074219 57.835938 62.160156 57.761719 62.234375 C 57.691406 62.304688 57.605469 62.339844 57.503906 62.339844 L 45.96875 62.339844 C 45.871094 62.339844 45.785156 62.304688 45.710938 62.230469 C 45.640625 62.160156 45.605469 62.074219 45.605469 61.976562 L 45.605469 52.464844 L 51.050781 49.339844 C 51.289062 49.207031 51.507812 49.046875 51.710938 48.871094 C 51.914062 48.691406 52.097656 48.496094 52.261719 48.28125 C 52.425781 48.066406 52.570312 47.835938 52.691406 47.59375 C 52.808594 47.351562 52.90625 47.097656 52.976562 46.835938 C 53.042969 46.574219 53.089844 46.308594 53.105469 46.039062 C 53.125 45.769531 53.117188 45.5 53.082031 45.230469 C 53.042969 44.960938 52.984375 44.699219 52.898438 44.441406 C 52.808594 44.1875 52.699219 43.941406 52.5625 43.707031 C 52.425781 43.472656 52.269531 43.253906 52.09375 43.050781 C 51.914062 42.84375 51.71875 42.660156 51.503906 42.496094 C 51.289062 42.332031 51.058594 42.1875 50.816406 42.070312 C 50.574219 41.949219 50.320312 41.855469 50.058594 41.785156 C 49.796875 41.714844 49.53125 41.671875 49.261719 41.652344 C 48.992188 41.636719 48.722656 41.644531 48.453125 41.679688 C 48.183594 41.714844 47.921875 41.777344 47.664062 41.863281 C 47.410156 41.949219 47.164062 42.0625 46.929688 42.195312 L 42.664062 44.660156 L 41.628906 43.578125 C 41.242188 43.175781 40.847656 42.796875 40.441406 42.441406 C 41.597656 39.796875 44.421875 38.511719 49.050781 38.511719 L 54.421875 38.511719 C 60.714844 38.511719 63.644531 40.828125 63.644531 45.804688 Z M 36.824219 28.65625 C 37.101562 28.816406 37.378906 28.808594 37.648438 28.628906 C 38.445312 28.105469 39.636719 27.488281 41.015625 26.773438 C 45.554688 24.425781 51.199219 21.503906 51.199219 17.703125 C 51.199219 15.613281 49.949219 13.675781 47.675781 12.246094 C 45.519531 10.890625 42.667969 10.140625 39.644531 10.140625 C 36.625 10.140625 33.769531 10.890625 31.613281 12.246094 C 29.339844 13.675781 28.089844 15.613281 28.089844 17.703125 C 28.089844 19.515625 29.070312 21.265625 30.84375 22.625 C 32.347656 23.777344 34.375 24.609375 36.609375 25.003906 L 36.429688 27.925781 C 36.410156 28.25 36.539062 28.492188 36.820312 28.65625 Z M 29.660156 17.703125 C 29.660156 16.171875 30.652344 14.707031 32.449219 13.578125 C 34.359375 12.375 36.914062 11.714844 39.644531 11.714844 C 42.375 11.714844 44.929688 12.375 46.839844 13.578125 C 48.636719 14.707031 49.625 16.171875 49.625 17.703125 C 49.625 20.546875 44.011719 23.453125 40.292969 25.375 C 39.484375 25.792969 38.742188 26.179688 38.089844 26.539062 L 38.21875 24.382812 C 38.230469 24.175781 38.171875 23.992188 38.039062 23.835938 C 37.910156 23.675781 37.742188 23.582031 37.535156 23.554688 C 32.972656 22.957031 29.660156 20.492188 29.660156 17.703125 Z M 34.773438 17.546875 C 34.792969 17.648438 34.792969 17.753906 34.773438 17.855469 C 34.761719 17.90625 34.746094 17.953125 34.726562 18.003906 C 34.707031 18.050781 34.683594 18.09375 34.65625 18.136719 C 34.625 18.179688 34.59375 18.21875 34.558594 18.257812 C 34.402344 18.410156 34.21875 18.484375 34 18.488281 C 33.949219 18.488281 33.898438 18.480469 33.847656 18.472656 C 33.796875 18.460938 33.75 18.445312 33.699219 18.425781 C 33.652344 18.40625 33.609375 18.382812 33.566406 18.355469 C 33.523438 18.324219 33.484375 18.292969 33.445312 18.257812 C 33.410156 18.21875 33.375 18.179688 33.347656 18.136719 C 33.320312 18.09375 33.296875 18.050781 33.277344 18.003906 C 33.257812 17.953125 33.242188 17.90625 33.230469 17.855469 C 33.210938 17.753906 33.210938 17.648438 33.230469 17.546875 C 33.242188 17.496094 33.257812 17.449219 33.277344 17.402344 C 33.296875 17.351562 33.320312 17.308594 33.347656 17.265625 C 33.375 17.222656 33.410156 17.183594 33.445312 17.144531 C 33.480469 17.109375 33.523438 17.078125 33.566406 17.046875 C 33.609375 17.019531 33.652344 16.996094 33.699219 16.976562 C 33.75 16.957031 33.796875 16.941406 33.847656 16.929688 C 34.121094 16.878906 34.359375 16.949219 34.558594 17.144531 C 34.59375 17.183594 34.625 17.222656 34.65625 17.265625 C 34.683594 17.308594 34.707031 17.351562 34.726562 17.402344 C 34.746094 17.449219 34.761719 17.496094 34.769531 17.546875 Z M 37.761719 18.488281 C 37.546875 18.484375 37.359375 18.410156 37.207031 18.257812 C 37.167969 18.21875 37.136719 18.179688 37.109375 18.136719 C 37.078125 18.09375 37.054688 18.050781 37.035156 18.003906 C 36.972656 17.855469 36.960938 17.703125 36.992188 17.546875 C 37 17.496094 37.015625 17.449219 37.035156 17.402344 C 37.054688 17.351562 37.078125 17.308594 37.109375 17.265625 C 37.136719 17.222656 37.167969 17.183594 37.207031 17.144531 C 37.242188 17.109375 37.28125 17.078125 37.324219 17.046875 C 37.367188 17.019531 37.414062 16.996094 37.460938 16.976562 C 37.507812 16.957031 37.558594 16.941406 37.609375 16.929688 C 37.710938 16.910156 37.8125 16.910156 37.914062 16.929688 C 37.964844 16.941406 38.015625 16.957031 38.0625 16.976562 C 38.109375 16.996094 38.15625 17.019531 38.199219 17.046875 C 38.242188 17.078125 38.28125 17.109375 38.316406 17.144531 C 38.355469 17.183594 38.386719 17.222656 38.414062 17.265625 C 38.445312 17.308594 38.46875 17.351562 38.488281 17.402344 C 38.507812 17.449219 38.523438 17.496094 38.53125 17.546875 C 38.554688 17.648438 38.554688 17.753906 38.53125 17.855469 C 38.523438 17.90625 38.507812 17.953125 38.488281 18.003906 C 38.46875 18.050781 38.445312 18.09375 38.414062 18.136719 C 38.386719 18.179688 38.355469 18.21875 38.316406 18.257812 C 38.28125 18.292969 38.242188 18.324219 38.199219 18.355469 C 38.15625 18.382812 38.109375 18.40625 38.0625 18.425781 C 38.015625 18.445312 37.964844 18.460938 37.914062 18.472656 C 37.863281 18.480469 37.8125 18.488281 37.761719 18.488281 Z M 40.753906 17.855469 C 40.699219 17.582031 40.769531 17.34375 40.96875 17.144531 C 41.007812 17.109375 41.046875 17.078125 41.089844 17.046875 C 41.132812 17.019531 41.175781 16.996094 41.226562 16.976562 C 41.273438 16.957031 41.320312 16.941406 41.371094 16.929688 C 41.472656 16.910156 41.578125 16.910156 41.679688 16.929688 C 41.730469 16.941406 41.777344 16.957031 41.828125 16.976562 C 41.875 16.996094 41.917969 17.019531 41.960938 17.046875 C 42.003906 17.078125 42.046875 17.109375 42.082031 17.144531 C 42.117188 17.183594 42.148438 17.222656 42.179688 17.265625 C 42.207031 17.308594 42.230469 17.351562 42.25 17.402344 C 42.269531 17.449219 42.285156 17.496094 42.296875 17.546875 C 42.328125 17.703125 42.3125 17.855469 42.25 18.003906 C 42.230469 18.050781 42.207031 18.09375 42.179688 18.136719 C 42.152344 18.179688 42.117188 18.21875 42.082031 18.257812 C 41.929688 18.410156 41.742188 18.488281 41.527344 18.488281 C 41.308594 18.488281 41.125 18.410156 40.96875 18.257812 C 40.933594 18.222656 40.902344 18.179688 40.871094 18.136719 C 40.84375 18.09375 40.820312 18.050781 40.800781 18.003906 C 40.78125 17.953125 40.765625 17.90625 40.753906 17.855469 Z M 44.515625 17.855469 C 44.496094 17.753906 44.496094 17.652344 44.515625 17.546875 C 44.527344 17.496094 44.539062 17.449219 44.558594 17.402344 C 44.578125 17.351562 44.605469 17.308594 44.632812 17.265625 C 44.660156 17.222656 44.695312 17.183594 44.730469 17.144531 C 44.765625 17.109375 44.804688 17.078125 44.851562 17.046875 C 44.894531 17.019531 44.9375 16.996094 44.984375 16.976562 C 45.03125 16.957031 45.082031 16.941406 45.132812 16.929688 C 45.234375 16.910156 45.335938 16.910156 45.4375 16.929688 C 45.488281 16.941406 45.539062 16.957031 45.585938 16.976562 C 45.632812 16.996094 45.679688 17.019531 45.722656 17.046875 C 45.808594 17.105469 45.882812 17.179688 45.9375 17.265625 C 45.996094 17.351562 46.035156 17.445312 46.054688 17.546875 C 46.074219 17.652344 46.074219 17.753906 46.054688 17.855469 C 46.046875 17.90625 46.03125 17.953125 46.011719 18.003906 C 45.992188 18.050781 45.96875 18.09375 45.9375 18.136719 C 45.910156 18.179688 45.878906 18.222656 45.839844 18.257812 C 45.6875 18.410156 45.503906 18.488281 45.285156 18.488281 C 45.234375 18.488281 45.183594 18.480469 45.132812 18.472656 C 45.082031 18.460938 45.03125 18.445312 44.984375 18.425781 C 44.9375 18.40625 44.894531 18.382812 44.851562 18.355469 C 44.761719 18.296875 44.691406 18.226562 44.632812 18.136719 C 44.605469 18.09375 44.578125 18.050781 44.558594 18.003906 C 44.539062 17.953125 44.527344 17.90625 44.515625 17.855469 Z M 44.515625 17.855469 " fill-opacity="1" fill-rule="nonzero"/></g></svg>