<svg xmlns="http://www.w3.org/2000/svg" xmlns:xlink="http://www.w3.org/1999/xlink" width="100" zoomAndPan="magnify" viewBox="0 0 75 74.999997" height="100" preserveAspectRatio="xMidYMid meet" version="1.0"><defs><clipPath id="0b975a7685"><path d="M 11.484375 41 L 63.234375 41 L 63.234375 63.234375 L 11.484375 63.234375 Z M 11.484375 41 " clip-rule="nonzero"/></clipPath><clipPath id="0ec21114b3"><path d="M 23 11.484375 L 52 11.484375 L 52 41 L 23 41 Z M 23 11.484375 " clip-rule="nonzero"/></clipPath></defs><g clip-path="url(#0b975a7685)"><path fill="#2c74dd" d="M 62.5 45.746094 C 61.476562 44.65625 59.910156 44.304688 58.503906 44.847656 C 56.878906 45.46875 55.042969 46.542969 53.042969 48.042969 C 52.171875 48.691406 51.0625 49.171875 49.859375 49.523438 C 50.089844 48.378906 49.839844 46.828125 48.730469 45.976562 C 48.308594 45.660156 47.804688 45.46875 47.210938 45.421875 C 44.207031 45.15625 39.886719 43.941406 35.019531 41.988281 C 28.640625 39.4375 21.324219 45.441406 21.019531 45.699219 C 20.921875 45.785156 20.847656 45.882812 20.789062 45.988281 C 20.445312 45.652344 20.023438 45.394531 19.546875 45.269531 C 18.808594 45.070312 18.035156 45.171875 17.367188 45.554688 L 13.292969 47.910156 C 11.925781 48.703125 11.457031 50.460938 12.242188 51.828125 L 18.046875 61.878906 C 18.582031 62.796875 19.546875 63.3125 20.53125 63.3125 C 21.019531 63.3125 21.507812 63.1875 21.957031 62.929688 L 26.03125 60.578125 C 27.195312 59.910156 27.703125 58.53125 27.339844 57.296875 C 29.738281 56.292969 32.648438 56.761719 36.242188 57.367188 C 38.738281 57.785156 41.484375 58.246094 44.476562 58.246094 C 45.546875 58.246094 46.65625 58.1875 47.804688 58.042969 C 54.152344 57.25 59.191406 53.75 62.308594 50.949219 C 63.066406 50.261719 63.496094 49.277344 63.496094 48.253906 C 63.496094 47.304688 63.132812 46.417969 62.492188 45.738281 Z M 25.53125 58.339844 C 25.464844 58.589844 25.3125 58.789062 25.082031 58.925781 L 21.007812 61.277344 C 20.550781 61.535156 19.96875 61.382812 19.699219 60.921875 L 13.894531 50.871094 C 13.769531 50.652344 13.730469 50.394531 13.800781 50.144531 C 13.867188 49.898438 14.019531 49.695312 14.25 49.5625 L 18.324219 47.210938 C 18.464844 47.125 18.628906 47.085938 18.800781 47.085938 C 18.886719 47.085938 18.964844 47.09375 19.050781 47.113281 C 19.296875 47.183594 19.5 47.335938 19.632812 47.5625 L 25.253906 57.308594 C 25.253906 57.308594 25.253906 57.328125 25.265625 57.335938 C 25.265625 57.335938 25.273438 57.347656 25.285156 57.355469 L 25.4375 57.613281 C 25.5625 57.835938 25.597656 58.09375 25.53125 58.339844 Z M 61.039062 49.535156 C 58.65625 51.675781 53.75 55.375 47.574219 56.140625 C 43.539062 56.640625 39.835938 56.027344 36.566406 55.472656 C 32.753906 54.832031 29.40625 54.277344 26.460938 55.578125 L 21.71875 47.363281 C 21.898438 47.34375 22.082031 47.296875 22.234375 47.164062 C 22.300781 47.105469 28.964844 41.625 34.300781 43.757812 C 39.332031 45.777344 43.855469 47.039062 47.046875 47.316406 C 47.132812 47.316406 47.382812 47.34375 47.574219 47.488281 C 47.945312 47.773438 48.128906 48.519531 47.976562 49.179688 C 47.976562 49.191406 47.976562 49.207031 47.964844 49.21875 C 47.871094 49.582031 47.582031 49.886719 47.199219 50.070312 C 42.886719 50.699219 38.382812 50.222656 38.316406 50.214844 C 37.792969 50.15625 37.324219 50.539062 37.265625 51.054688 C 37.207031 51.582031 37.582031 52.050781 38.105469 52.105469 C 38.554688 52.152344 49.199219 53.292969 54.191406 49.554688 C 56.503906 47.8125 58.179688 46.992188 59.183594 46.617188 C 59.863281 46.359375 60.617188 46.523438 61.105469 47.046875 C 61.421875 47.371094 61.582031 47.804688 61.582031 48.242188 C 61.582031 48.742188 61.382812 49.191406 61.027344 49.523438 Z M 61.039062 49.535156 " fill-opacity="1" fill-rule="nonzero"/></g><path fill="#2c74dd" d="M 37.6875 32.121094 C 41.050781 32.121094 43.785156 29.386719 43.785156 26.019531 C 43.785156 22.652344 41.050781 19.917969 37.6875 19.917969 C 34.320312 19.917969 31.585938 22.652344 31.585938 26.019531 C 31.585938 29.386719 34.320312 32.121094 37.6875 32.121094 Z M 37.6875 21.832031 C 40 21.832031 41.875 23.714844 41.875 26.019531 C 41.875 28.324219 39.992188 30.207031 37.6875 30.207031 C 35.382812 30.207031 33.496094 28.324219 33.496094 26.019531 C 33.496094 23.714844 35.382812 21.832031 37.6875 21.832031 Z M 37.6875 21.832031 " fill-opacity="1" fill-rule="nonzero"/><g clip-path="url(#0ec21114b3)"><path fill="#2c74dd" d="M 24.203125 28.34375 C 23.542969 28.976562 23.410156 29.96875 23.859375 30.761719 L 26.660156 35.609375 C 27.121094 36.40625 28.046875 36.777344 28.925781 36.527344 L 31.050781 35.925781 C 31.347656 35.839844 31.644531 35.878906 31.902344 36.03125 C 32.160156 36.183594 32.351562 36.425781 32.417969 36.71875 L 32.953125 38.863281 C 33.171875 39.75 33.964844 40.363281 34.882812 40.363281 L 40.488281 40.363281 C 41.394531 40.363281 42.191406 39.742188 42.410156 38.863281 L 42.945312 36.71875 C 43.023438 36.425781 43.203125 36.183594 43.460938 36.03125 C 43.71875 35.878906 44.027344 35.839844 44.3125 35.925781 L 46.4375 36.527344 C 47.316406 36.777344 48.242188 36.40625 48.703125 35.609375 L 51.503906 30.761719 C 51.964844 29.96875 51.820312 28.976562 51.160156 28.34375 L 49.574219 26.8125 C 49.351562 26.601562 49.238281 26.324219 49.238281 26.019531 C 49.238281 25.714844 49.351562 25.4375 49.574219 25.226562 L 51.160156 23.695312 C 51.820312 23.066406 51.953125 22.070312 51.503906 21.277344 L 48.703125 16.429688 C 48.242188 15.636719 47.316406 15.261719 46.4375 15.511719 L 44.3125 16.113281 C 44.027344 16.199219 43.71875 16.160156 43.460938 16.007812 C 43.203125 15.855469 43.011719 15.617188 42.945312 15.320312 L 42.410156 13.179688 C 42.191406 12.289062 41.394531 11.675781 40.488281 11.675781 L 34.882812 11.675781 C 33.964844 11.675781 33.183594 12.296875 32.953125 13.179688 L 32.417969 15.320312 C 32.339844 15.617188 32.160156 15.855469 31.902344 16.007812 C 31.644531 16.160156 31.335938 16.199219 31.050781 16.113281 L 28.925781 15.511719 C 28.046875 15.261719 27.121094 15.636719 26.660156 16.429688 L 23.859375 21.277344 C 23.398438 22.070312 23.542969 23.066406 24.195312 23.695312 L 25.78125 25.226562 C 26 25.4375 26.117188 25.714844 26.117188 26.019531 C 26.117188 26.324219 26 26.601562 25.78125 26.8125 L 24.195312 28.34375 Z M 27.121094 23.847656 L 25.523438 22.222656 L 28.410156 17.335938 L 30.535156 17.941406 C 31.328125 18.167969 32.160156 18.0625 32.867188 17.652344 C 33.582031 17.242188 34.082031 16.574219 34.28125 15.769531 L 34.882812 13.570312 L 40.554688 13.628906 L 41.089844 15.769531 C 41.292969 16.574219 41.796875 17.242188 42.503906 17.652344 C 43.222656 18.0625 44.054688 18.167969 44.839844 17.941406 L 47.039062 17.367188 L 49.839844 22.214844 L 49.839844 22.300781 C 49.839844 22.300781 48.242188 23.832031 48.242188 23.832031 C 47.648438 24.402344 47.324219 25.179688 47.324219 26 C 47.324219 26.824219 47.648438 27.597656 48.242188 28.171875 L 49.839844 29.796875 L 46.953125 34.683594 L 44.828125 34.082031 C 44.035156 33.851562 43.203125 33.957031 42.496094 34.367188 C 41.789062 34.777344 41.28125 35.449219 41.082031 36.25 L 40.476562 38.441406 L 34.808594 38.382812 L 34.273438 36.242188 C 34.070312 35.4375 33.566406 34.777344 32.855469 34.359375 C 32.386719 34.089844 31.871094 33.957031 31.355469 33.957031 C 31.078125 33.957031 30.800781 33.996094 30.523438 34.070312 L 28.324219 34.644531 L 25.53125 29.703125 L 27.121094 28.171875 C 27.710938 27.597656 28.039062 26.832031 28.039062 26 C 28.039062 25.167969 27.710938 24.402344 27.121094 23.832031 Z M 27.121094 23.847656 " fill-opacity="1" fill-rule="nonzero"/></g></svg>