<svg xmlns="http://www.w3.org/2000/svg" xmlns:xlink="http://www.w3.org/1999/xlink" width="100" zoomAndPan="magnify" viewBox="0 0 75 74.999997" height="100" preserveAspectRatio="xMidYMid meet" version="1.0"><defs><clipPath id="f676420c3d"><path d="M 7.5 12.1875 L 67.5 12.1875 L 67.5 63 L 7.5 63 Z M 7.5 12.1875 " clip-rule="nonzero"/></clipPath></defs><g clip-path="url(#f676420c3d)"><path fill="#2c74dd" d="M 53.535156 12.1875 C 53.238281 12.195312 53.085938 12.214844 53.070312 12.210938 C 52.316406 12.234375 51.640625 12.6875 51.332031 13.375 C 51.332031 13.378906 51.328125 13.378906 51.328125 13.382812 L 51.328125 13.390625 C 51.324219 13.394531 51.324219 13.394531 51.320312 13.398438 C 51.316406 13.410156 51.3125 13.425781 51.304688 13.441406 C 51.304688 13.445312 51.296875 13.453125 51.296875 13.457031 L 51.300781 13.453125 C 50.945312 14.226562 50.742188 15.097656 50.554688 16.011719 C 50.503906 16.253906 50.335938 16.453125 50.109375 16.546875 L 50.109375 16.542969 C 50.09375 16.550781 50.050781 16.574219 49.992188 16.597656 L 49.988281 16.597656 C 49.757812 16.695312 49.496094 16.671875 49.289062 16.53125 C 48.503906 16.011719 47.75 15.535156 46.949219 15.238281 C 46.941406 15.234375 46.929688 15.234375 46.914062 15.230469 C 46.910156 15.230469 46.90625 15.226562 46.898438 15.226562 C 46.894531 15.222656 46.890625 15.222656 46.886719 15.21875 C 46.882812 15.21875 46.882812 15.21875 46.878906 15.21875 C 46.179688 14.953125 45.382812 15.105469 44.832031 15.625 C 44.828125 15.628906 44.824219 15.632812 44.820312 15.636719 C 44.816406 15.640625 44.8125 15.644531 44.808594 15.644531 C 44.804688 15.648438 44.804688 15.648438 44.800781 15.648438 C 44.691406 15.746094 44.585938 15.839844 44.476562 15.945312 L 44.476562 15.949219 L 44.46875 15.953125 C 44.464844 15.957031 44.460938 15.960938 44.457031 15.964844 C 44.394531 16.027344 44.328125 16.089844 44.265625 16.152344 C 44.265625 16.15625 44.261719 16.15625 44.261719 16.160156 C 44.257812 16.164062 44.257812 16.164062 44.253906 16.167969 C 44.253906 16.171875 44.253906 16.171875 44.25 16.175781 L 44.246094 16.179688 C 44.242188 16.1875 44.234375 16.191406 44.226562 16.195312 C 44.164062 16.253906 44.105469 16.320312 44.039062 16.382812 C 44.039062 16.386719 44.035156 16.386719 44.03125 16.390625 L 44.03125 16.394531 L 44.027344 16.398438 L 44.023438 16.40625 C 43.910156 16.519531 43.808594 16.628906 43.714844 16.738281 C 43.710938 16.742188 43.707031 16.746094 43.703125 16.75 C 43.699219 16.75 43.699219 16.75 43.695312 16.753906 C 43.175781 17.300781 43.023438 18.101562 43.292969 18.804688 L 43.292969 18.808594 C 43.300781 18.835938 43.308594 18.863281 43.316406 18.890625 L 43.320312 18.894531 C 43.320312 18.894531 43.320312 18.898438 43.324219 18.90625 C 43.621094 19.691406 44.089844 20.4375 44.605469 21.214844 C 44.742188 21.425781 44.765625 21.691406 44.667969 21.921875 C 44.640625 21.984375 44.617188 22.027344 44.609375 22.046875 C 44.515625 22.273438 44.320312 22.441406 44.082031 22.492188 C 43.164062 22.679688 42.292969 22.878906 41.519531 23.234375 C 41.515625 23.234375 41.511719 23.238281 41.507812 23.242188 C 41.507812 23.242188 41.503906 23.242188 41.503906 23.242188 C 41.484375 23.25 41.472656 23.253906 41.460938 23.257812 C 41.457031 23.257812 41.457031 23.261719 41.457031 23.261719 L 41.449219 23.261719 C 41.445312 23.265625 41.445312 23.265625 41.441406 23.269531 C 41.136719 23.402344 40.886719 23.621094 40.691406 23.878906 L 29.722656 23.878906 C 27.796875 23.878906 26.222656 25.445312 26.222656 27.371094 L 26.222656 35.613281 C 25.933594 35.589844 25.644531 35.574219 25.351562 35.574219 C 22.890625 35.605469 20.535156 36.546875 18.734375 38.21875 C 14.980469 41.707031 14.511719 47.480469 17.644531 51.527344 L 16.445312 52.636719 C 16.222656 52.449219 15.964844 52.292969 15.683594 52.234375 C 15.078125 52.105469 14.449219 52.277344 13.992188 52.695312 C 13.992188 52.699219 13.992188 52.703125 13.992188 52.707031 L 13.988281 52.714844 L 13.398438 53.257812 L 12.574219 54.019531 L 9.222656 57.132812 L 8.398438 57.894531 L 8.113281 58.15625 C 7.519531 58.710938 7.347656 59.585938 7.671875 60.332031 L 7.664062 60.332031 L 8.167969 61.492188 C 8.171875 61.492188 8.171875 61.496094 8.175781 61.5 C 8.207031 61.554688 8.238281 61.609375 8.269531 61.652344 C 8.285156 61.671875 8.300781 61.691406 8.308594 61.703125 C 8.3125 61.710938 8.3125 61.714844 8.316406 61.71875 C 8.316406 61.71875 8.320312 61.71875 8.324219 61.722656 L 8.328125 61.730469 C 8.332031 61.734375 8.335938 61.734375 8.335938 61.734375 C 8.613281 62.128906 9.046875 62.503906 9.535156 62.605469 C 10.144531 62.730469 10.773438 62.554688 11.230469 62.136719 L 11.828125 61.585938 L 12.648438 60.824219 L 15.714844 57.972656 L 15.996094 57.707031 L 16.820312 56.945312 L 17.101562 56.679688 C 17.699219 56.125 17.878906 55.253906 17.554688 54.507812 L 17.40625 54.175781 L 18.851562 52.832031 C 20.933594 54.703125 23.609375 55.53125 26.222656 55.332031 L 26.222656 59.3125 C 26.222656 61.238281 27.796875 62.8125 29.722656 62.8125 L 43.355469 62.8125 C 43.359375 62.8125 43.363281 62.8125 43.367188 62.8125 C 43.425781 62.8125 43.496094 62.8125 43.582031 62.8125 C 44.710938 62.8125 45.785156 62.277344 46.460938 61.375 C 46.464844 61.363281 46.472656 61.355469 46.480469 61.347656 L 53.851562 53.527344 C 53.855469 53.523438 53.863281 53.519531 53.867188 53.515625 C 54.535156 52.894531 54.914062 52.019531 54.914062 51.105469 C 54.914062 51.054688 54.914062 51.015625 54.914062 50.984375 C 54.914062 50.980469 54.914062 50.976562 54.914062 50.972656 L 54.914062 39.359375 C 55.566406 39.257812 56.136719 38.847656 56.40625 38.238281 C 56.410156 38.234375 56.417969 38.226562 56.421875 38.222656 C 56.421875 38.21875 56.425781 38.207031 56.4375 38.175781 C 56.4375 38.175781 56.441406 38.175781 56.441406 38.171875 C 56.441406 38.171875 56.445312 38.167969 56.445312 38.167969 C 56.804688 37.390625 57 36.523438 57.1875 35.601562 C 57.238281 35.359375 57.40625 35.160156 57.632812 35.066406 L 57.632812 35.070312 C 57.664062 35.058594 57.707031 35.03125 57.765625 35.007812 C 57.996094 34.914062 58.257812 34.9375 58.464844 35.074219 C 59.238281 35.585938 59.984375 36.058594 60.773438 36.351562 C 60.777344 36.351562 60.773438 36.359375 60.777344 36.359375 C 60.777344 36.359375 60.78125 36.359375 60.785156 36.359375 C 60.8125 36.371094 60.84375 36.378906 60.871094 36.386719 C 61.578125 36.65625 62.375 36.503906 62.925781 35.976562 C 62.929688 35.972656 62.933594 35.972656 62.9375 35.96875 L 62.941406 35.964844 C 63.054688 35.863281 63.167969 35.761719 63.273438 35.660156 L 63.273438 35.65625 L 63.277344 35.652344 C 63.277344 35.648438 63.285156 35.648438 63.285156 35.648438 L 63.285156 35.644531 L 63.292969 35.636719 C 63.347656 35.585938 63.410156 35.519531 63.492188 35.4375 C 63.492188 35.4375 63.496094 35.433594 63.496094 35.433594 L 63.679688 35.257812 C 63.667969 35.265625 63.683594 35.253906 63.710938 35.222656 C 63.714844 35.21875 63.714844 35.21875 63.714844 35.214844 L 63.71875 35.214844 L 63.71875 35.210938 L 63.722656 35.210938 C 63.722656 35.207031 63.726562 35.207031 63.726562 35.203125 L 63.726562 35.199219 C 63.730469 35.195312 63.738281 35.195312 63.738281 35.195312 C 63.839844 35.089844 63.925781 34.988281 64.019531 34.882812 L 64.027344 34.875 C 64.03125 34.871094 64.03125 34.867188 64.035156 34.863281 C 64.039062 34.859375 64.042969 34.847656 64.046875 34.84375 C 64.566406 34.296875 64.730469 33.496094 64.460938 32.796875 L 64.460938 32.792969 C 64.453125 32.773438 64.445312 32.75 64.4375 32.730469 C 64.144531 31.929688 63.664062 31.167969 63.144531 30.382812 C 63.007812 30.175781 62.984375 29.914062 63.082031 29.6875 L 63.082031 29.683594 C 63.097656 29.648438 63.109375 29.609375 63.125 29.570312 C 63.125 29.570312 63.128906 29.570312 63.128906 29.570312 C 63.222656 29.339844 63.421875 29.175781 63.664062 29.125 C 64.582031 28.9375 65.453125 28.734375 66.226562 28.378906 C 66.226562 28.375 66.230469 28.375 66.238281 28.375 L 66.238281 28.371094 C 66.253906 28.363281 66.269531 28.363281 66.277344 28.359375 L 66.28125 28.355469 C 66.285156 28.351562 66.289062 28.351562 66.296875 28.347656 C 66.296875 28.347656 66.300781 28.34375 66.304688 28.34375 C 66.988281 28.035156 67.445312 27.363281 67.464844 26.605469 C 67.464844 26.597656 67.464844 26.59375 67.464844 26.585938 C 67.464844 26.585938 67.464844 26.582031 67.464844 26.578125 C 67.472656 26.429688 67.484375 26.28125 67.488281 26.121094 C 67.488281 26.117188 67.488281 26.117188 67.488281 26.113281 L 67.488281 26.109375 C 67.488281 26.011719 67.488281 25.910156 67.488281 25.808594 C 67.488281 25.808594 67.488281 25.808594 67.488281 25.804688 C 67.488281 25.703125 67.488281 25.601562 67.488281 25.5 C 67.488281 25.5 67.488281 25.5 67.488281 25.496094 C 67.484375 25.332031 67.472656 25.183594 67.464844 25.03125 C 67.464844 25.03125 67.464844 25.03125 67.464844 25.027344 C 67.464844 25.023438 67.464844 25.015625 67.464844 25.011719 L 67.464844 25.007812 C 67.445312 24.25 66.988281 23.574219 66.304688 23.269531 C 66.300781 23.265625 66.292969 23.265625 66.289062 23.261719 L 66.292969 23.257812 C 66.289062 23.257812 66.289062 23.261719 66.285156 23.261719 L 66.285156 23.257812 C 66.277344 23.253906 66.265625 23.253906 66.253906 23.246094 C 66.25 23.246094 66.246094 23.242188 66.238281 23.242188 C 66.234375 23.238281 66.230469 23.238281 66.226562 23.234375 C 65.453125 22.882812 64.582031 22.679688 63.667969 22.492188 L 63.664062 22.492188 C 63.421875 22.441406 63.21875 22.273438 63.125 22.042969 L 63.128906 22.042969 C 63.113281 22 63.097656 21.960938 63.082031 21.925781 C 62.984375 21.695312 63.007812 21.433594 63.144531 21.230469 C 63.664062 20.441406 64.144531 19.691406 64.4375 18.886719 C 64.445312 18.867188 64.453125 18.84375 64.460938 18.820312 C 64.730469 18.117188 64.570312 17.316406 64.050781 16.769531 C 64.046875 16.765625 64.042969 16.757812 64.039062 16.753906 L 64.039062 16.746094 L 64.03125 16.738281 C 63.933594 16.628906 63.839844 16.527344 63.738281 16.417969 L 63.734375 16.414062 L 63.730469 16.414062 L 63.730469 16.410156 L 63.726562 16.410156 C 63.726562 16.410156 63.722656 16.40625 63.722656 16.40625 L 63.71875 16.402344 L 63.71875 16.394531 C 63.710938 16.386719 63.703125 16.378906 63.699219 16.371094 C 63.699219 16.371094 63.695312 16.367188 63.695312 16.367188 C 63.691406 16.363281 63.6875 16.359375 63.683594 16.355469 L 63.679688 16.355469 L 63.496094 16.171875 L 63.492188 16.171875 C 63.410156 16.089844 63.347656 16.027344 63.292969 15.976562 L 63.289062 15.96875 C 63.289062 15.96875 63.285156 15.964844 63.285156 15.964844 C 63.28125 15.960938 63.277344 15.957031 63.277344 15.957031 L 63.273438 15.957031 C 63.269531 15.953125 63.269531 15.949219 63.269531 15.945312 C 63.164062 15.84375 63.050781 15.746094 62.941406 15.648438 C 62.941406 15.648438 62.9375 15.644531 62.9375 15.644531 C 62.933594 15.640625 62.929688 15.640625 62.925781 15.636719 C 62.375 15.109375 61.574219 14.957031 60.867188 15.226562 C 60.839844 15.238281 60.8125 15.246094 60.785156 15.253906 C 60.78125 15.253906 60.777344 15.253906 60.777344 15.257812 C 60.773438 15.257812 60.773438 15.257812 60.769531 15.257812 C 59.984375 15.554688 59.238281 16.027344 58.460938 16.539062 C 58.253906 16.675781 57.992188 16.699219 57.765625 16.601562 C 57.710938 16.582031 57.667969 16.558594 57.632812 16.546875 C 57.40625 16.453125 57.238281 16.253906 57.1875 16.011719 L 57.1875 16.007812 C 57 15.089844 56.800781 14.222656 56.445312 13.445312 C 56.441406 13.441406 56.441406 13.4375 56.4375 13.4375 C 56.429688 13.417969 56.433594 13.417969 56.429688 13.410156 C 56.429688 13.40625 56.429688 13.402344 56.429688 13.402344 L 56.425781 13.398438 C 56.417969 13.394531 56.414062 13.386719 56.40625 13.378906 C 56.101562 12.691406 55.425781 12.234375 54.671875 12.210938 C 54.664062 12.210938 54.65625 12.210938 54.648438 12.210938 C 54.644531 12.210938 54.644531 12.210938 54.640625 12.210938 C 54.496094 12.203125 54.355469 12.191406 54.195312 12.191406 C 54.097656 12.191406 53.980469 12.191406 53.882812 12.191406 C 53.878906 12.191406 53.878906 12.191406 53.875 12.191406 L 53.871094 12.191406 C 53.78125 12.191406 53.691406 12.191406 53.597656 12.191406 C 53.589844 12.191406 53.582031 12.195312 53.570312 12.195312 C 53.558594 12.195312 53.550781 12.191406 53.539062 12.191406 L 53.535156 12.191406 Z M 53.5625 13.929688 L 53.566406 13.933594 C 53.796875 13.933594 53.800781 13.933594 53.898438 13.933594 L 54.15625 13.933594 C 54.285156 13.933594 54.855469 13.96875 54.542969 13.949219 C 54.832031 13.949219 54.820312 14.179688 54.820312 14.085938 C 54.835938 14.117188 54.867188 14.1875 54.867188 14.1875 C 55.121094 14.738281 55.296875 15.453125 55.480469 16.355469 C 55.644531 17.167969 56.207031 17.84375 56.972656 18.15625 C 57.003906 18.167969 57.03125 18.1875 57.082031 18.207031 C 57.851562 18.53125 58.730469 18.449219 59.421875 17.988281 C 60.183594 17.484375 60.8125 17.105469 61.371094 16.894531 L 61.371094 16.890625 C 61.371094 16.890625 61.378906 16.890625 61.378906 16.890625 C 61.382812 16.886719 61.390625 16.886719 61.394531 16.882812 C 61.398438 16.878906 61.410156 16.875 61.410156 16.875 C 61.414062 16.875 61.417969 16.875 61.421875 16.875 C 61.445312 16.867188 61.464844 16.859375 61.488281 16.851562 C 61.554688 16.824219 61.667969 16.832031 61.726562 16.890625 L 61.730469 16.890625 C 61.746094 16.90625 61.757812 16.925781 61.777344 16.941406 C 61.871094 17.027344 61.957031 17.097656 62.039062 17.175781 C 62.039062 17.179688 62.042969 17.179688 62.042969 17.183594 C 62.046875 17.1875 62.054688 17.191406 62.058594 17.199219 L 62.074219 17.210938 L 62.078125 17.21875 C 62.125 17.261719 62.179688 17.320312 62.253906 17.398438 L 62.257812 17.398438 C 62.269531 17.414062 62.28125 17.425781 62.292969 17.4375 C 62.304688 17.449219 62.316406 17.457031 62.328125 17.464844 C 62.328125 17.46875 62.332031 17.472656 62.332031 17.472656 C 62.339844 17.480469 62.34375 17.484375 62.347656 17.488281 L 62.347656 17.492188 C 62.382812 17.527344 62.414062 17.558594 62.441406 17.585938 C 62.445312 17.589844 62.445312 17.589844 62.445312 17.59375 C 62.453125 17.597656 62.464844 17.605469 62.472656 17.609375 L 62.492188 17.632812 L 62.496094 17.632812 C 62.558594 17.699219 62.609375 17.773438 62.734375 17.910156 C 62.75 17.925781 62.769531 17.941406 62.789062 17.960938 L 62.789062 17.964844 C 62.855469 18.035156 62.859375 18.121094 62.832031 18.195312 C 62.824219 18.210938 62.820312 18.226562 62.816406 18.246094 C 62.8125 18.246094 62.8125 18.25 62.8125 18.25 C 62.808594 18.257812 62.804688 18.269531 62.800781 18.277344 C 62.589844 18.855469 62.203125 19.5 61.695312 20.265625 C 61.238281 20.960938 61.152344 21.835938 61.476562 22.601562 C 61.488281 22.625 61.503906 22.652344 61.519531 22.691406 C 61.832031 23.460938 62.503906 24.023438 63.320312 24.191406 C 64.207031 24.371094 64.921875 24.554688 65.472656 24.804688 L 65.476562 24.804688 C 65.488281 24.808594 65.503906 24.8125 65.515625 24.816406 C 65.542969 24.832031 65.566406 24.84375 65.59375 24.855469 C 65.675781 24.894531 65.71875 24.96875 65.722656 25.054688 C 65.722656 25.078125 65.722656 25.105469 65.726562 25.132812 C 65.734375 25.28125 65.742188 25.382812 65.742188 25.488281 C 65.742188 25.492188 65.742188 25.492188 65.742188 25.492188 C 65.742188 25.5 65.742188 25.507812 65.742188 25.515625 C 65.742188 25.523438 65.742188 25.527344 65.742188 25.527344 C 65.742188 25.613281 65.742188 25.703125 65.742188 25.789062 C 65.742188 25.792969 65.742188 25.800781 65.742188 25.804688 C 65.742188 25.808594 65.742188 25.820312 65.742188 25.824219 C 65.742188 25.910156 65.742188 25.996094 65.742188 26.082031 L 65.742188 26.085938 C 65.742188 26.082031 65.742188 26.085938 65.742188 26.097656 C 65.742188 26.101562 65.742188 26.109375 65.742188 26.113281 L 65.742188 26.117188 C 65.742188 26.222656 65.734375 26.332031 65.726562 26.480469 C 65.722656 26.507812 65.722656 26.535156 65.722656 26.558594 C 65.71875 26.640625 65.671875 26.714844 65.589844 26.753906 C 65.566406 26.765625 65.542969 26.777344 65.515625 26.789062 C 65.507812 26.792969 65.5 26.796875 65.492188 26.796875 C 65.488281 26.800781 65.484375 26.800781 65.484375 26.804688 C 65.480469 26.804688 65.476562 26.804688 65.476562 26.804688 C 64.921875 27.054688 64.210938 27.234375 63.320312 27.417969 C 62.503906 27.585938 61.828125 28.144531 61.515625 28.914062 C 61.5 28.953125 61.484375 28.988281 61.472656 29.011719 C 61.152344 29.773438 61.238281 30.648438 61.695312 31.339844 C 62.203125 32.109375 62.589844 32.753906 62.800781 33.332031 C 62.804688 33.335938 62.808594 33.34375 62.808594 33.351562 C 62.8125 33.359375 62.816406 33.363281 62.820312 33.371094 C 62.824219 33.390625 62.828125 33.410156 62.832031 33.429688 C 62.855469 33.5 62.847656 33.582031 62.789062 33.644531 C 62.769531 33.660156 62.75 33.679688 62.734375 33.703125 C 62.609375 33.839844 62.554688 33.910156 62.492188 33.976562 L 62.472656 34 C 62.464844 34.003906 62.457031 34.007812 62.453125 34.011719 C 62.425781 34.039062 62.390625 34.078125 62.347656 34.121094 C 62.328125 34.140625 62.324219 34.140625 62.332031 34.136719 C 62.320312 34.144531 62.308594 34.15625 62.296875 34.167969 C 62.296875 34.167969 62.292969 34.171875 62.292969 34.171875 C 62.28125 34.183594 62.265625 34.195312 62.253906 34.210938 C 62.179688 34.289062 62.125 34.347656 62.078125 34.390625 L 62.085938 34.375 C 62.082031 34.382812 62.074219 34.394531 62.066406 34.402344 L 62.066406 34.40625 C 62.0625 34.40625 62.058594 34.410156 62.058594 34.410156 C 62.054688 34.414062 62.050781 34.417969 62.046875 34.421875 C 62.042969 34.425781 62.039062 34.429688 62.03125 34.433594 C 61.953125 34.507812 61.871094 34.585938 61.78125 34.671875 L 61.777344 34.671875 C 61.757812 34.6875 61.746094 34.699219 61.730469 34.714844 C 61.671875 34.769531 61.5625 34.785156 61.488281 34.757812 C 61.464844 34.75 61.441406 34.742188 61.417969 34.734375 C 61.414062 34.734375 61.414062 34.730469 61.414062 34.730469 C 61.414062 34.730469 61.402344 34.730469 61.394531 34.726562 C 61.390625 34.722656 61.382812 34.71875 61.378906 34.714844 L 61.375 34.714844 C 60.816406 34.5 60.183594 34.121094 59.421875 33.617188 C 58.730469 33.160156 57.851562 33.078125 57.085938 33.402344 C 57.035156 33.425781 57.007812 33.4375 56.976562 33.449219 C 56.207031 33.761719 55.644531 34.441406 55.480469 35.253906 C 55.296875 36.152344 55.121094 36.867188 54.867188 37.421875 C 54.851562 37.457031 54.835938 37.488281 54.820312 37.523438 C 54.785156 37.597656 54.707031 37.652344 54.621094 37.65625 C 54.59375 37.65625 54.566406 37.65625 54.539062 37.660156 C 54.390625 37.667969 54.289062 37.671875 54.183594 37.675781 C 54.167969 37.675781 54.15625 37.675781 54.15625 37.675781 L 54.152344 37.675781 C 54.070312 37.675781 53.988281 37.675781 53.902344 37.675781 C 53.886719 37.675781 53.875 37.675781 53.863281 37.675781 C 53.773438 37.675781 53.6875 37.675781 53.59375 37.675781 L 53.570312 37.675781 C 53.460938 37.671875 53.347656 37.667969 53.199219 37.660156 C 53.171875 37.65625 53.148438 37.65625 53.121094 37.65625 L 53.117188 37.65625 C 53.035156 37.652344 52.960938 37.601562 52.925781 37.527344 L 52.921875 37.523438 C 52.910156 37.5 52.902344 37.472656 52.886719 37.449219 C 52.886719 37.441406 52.886719 37.4375 52.882812 37.429688 L 52.878906 37.425781 C 52.878906 37.421875 52.875 37.417969 52.875 37.414062 C 52.621094 36.863281 52.441406 36.144531 52.257812 35.25 C 52.089844 34.4375 51.535156 33.761719 50.769531 33.449219 C 50.757812 33.460938 50.753906 33.449219 50.746094 33.4375 C 50.734375 33.433594 50.707031 33.421875 50.671875 33.40625 L 50.667969 33.40625 C 49.902344 33.082031 49.023438 33.164062 48.332031 33.625 C 47.558594 34.136719 46.914062 34.523438 46.339844 34.734375 C 46.3125 34.742188 46.285156 34.757812 46.257812 34.765625 C 46.171875 34.796875 46.09375 34.769531 46.039062 34.71875 L 46.03125 34.714844 C 46.011719 34.699219 45.992188 34.6875 45.972656 34.671875 C 45.972656 34.667969 45.972656 34.664062 45.972656 34.664062 C 45.835938 34.542969 45.769531 34.492188 45.710938 34.433594 C 45.707031 34.429688 45.703125 34.425781 45.699219 34.421875 C 45.695312 34.421875 45.691406 34.417969 45.6875 34.414062 C 45.683594 34.410156 45.679688 34.40625 45.679688 34.40625 C 45.671875 34.394531 45.660156 34.386719 45.65625 34.378906 L 45.652344 34.375 C 45.601562 34.324219 45.550781 34.277344 45.496094 34.222656 L 45.480469 34.210938 L 45.476562 34.203125 L 45.472656 34.199219 C 45.46875 34.195312 45.464844 34.191406 45.460938 34.1875 C 45.457031 34.179688 45.453125 34.175781 45.449219 34.171875 C 45.394531 34.117188 45.335938 34.066406 45.277344 34.007812 L 45.261719 33.992188 C 45.261719 33.988281 45.253906 33.984375 45.253906 33.976562 L 45.246094 33.96875 C 45.171875 33.890625 45.097656 33.808594 45.007812 33.710938 C 44.992188 33.691406 44.976562 33.675781 44.960938 33.65625 L 44.957031 33.652344 C 44.882812 33.578125 44.886719 33.5 44.917969 33.421875 C 44.925781 33.390625 44.9375 33.359375 44.949219 33.328125 C 44.949219 33.324219 44.949219 33.324219 44.949219 33.320312 C 45.160156 32.757812 45.546875 32.117188 46.054688 31.347656 C 46.515625 30.652344 46.59375 29.78125 46.269531 29.011719 C 46.25 28.96875 46.238281 28.9375 46.230469 28.921875 C 46.226562 28.917969 46.226562 28.914062 46.226562 28.910156 C 46.222656 28.90625 46.222656 28.898438 46.222656 28.894531 C 46.222656 28.894531 46.21875 28.890625 46.21875 28.890625 C 45.902344 28.132812 45.230469 27.582031 44.425781 27.417969 C 43.523438 27.234375 42.800781 27.046875 42.25 26.796875 C 42.246094 26.792969 42.246094 26.792969 42.246094 26.789062 L 42.242188 26.789062 C 42.242188 26.789062 42.230469 26.785156 42.234375 26.785156 C 42.226562 26.78125 42.21875 26.78125 42.207031 26.777344 L 42.148438 26.75 L 42.148438 26.753906 C 42.066406 26.714844 42.023438 26.640625 42.019531 26.554688 L 42.019531 26.550781 C 42.019531 26.527344 42.015625 26.503906 42.015625 26.480469 L 42.015625 26.476562 C 42.007812 26.328125 42 26.214844 42 26.109375 L 42 26.105469 C 42 26.089844 42 26.082031 42 26.082031 L 42 26.078125 C 42 25.996094 42 25.917969 42 25.832031 C 42 25.824219 42 25.816406 42 25.808594 L 42 25.792969 C 42 25.789062 42 25.78125 42 25.777344 C 42 25.691406 42 25.609375 42 25.527344 L 42 25.523438 C 42 25.523438 42 25.515625 42 25.503906 L 42 25.496094 C 42 25.390625 42.007812 25.28125 42.015625 25.132812 L 42.015625 25.128906 C 42.015625 25.105469 42.019531 25.078125 42.019531 25.054688 L 42.019531 25.050781 C 42.023438 24.964844 42.066406 24.890625 42.148438 24.851562 L 42.148438 24.855469 L 42.207031 24.828125 C 42.21875 24.824219 42.226562 24.820312 42.234375 24.820312 C 42.234375 24.820312 42.242188 24.816406 42.246094 24.816406 C 42.246094 24.8125 42.246094 24.8125 42.25 24.808594 C 42.800781 24.554688 43.523438 24.371094 44.425781 24.1875 C 45.234375 24.023438 45.914062 23.464844 46.226562 22.699219 L 46.269531 22.714844 C 46.25 22.703125 46.230469 22.691406 46.230469 22.691406 C 46.234375 22.675781 46.246094 22.644531 46.269531 22.59375 C 46.59375 21.828125 46.515625 20.953125 46.054688 20.257812 C 45.546875 19.488281 45.160156 18.851562 44.949219 18.285156 C 44.949219 18.285156 44.949219 18.28125 44.949219 18.277344 C 44.9375 18.246094 44.925781 18.21875 44.917969 18.183594 C 44.902344 18.144531 44.898438 18.105469 44.902344 18.070312 C 44.90625 18.03125 44.917969 17.992188 44.957031 17.953125 L 44.960938 17.949219 C 44.976562 17.929688 44.988281 17.914062 45.007812 17.894531 C 45.097656 17.796875 45.171875 17.714844 45.246094 17.632812 C 45.246094 17.632812 45.25 17.628906 45.253906 17.628906 C 45.257812 17.621094 45.261719 17.617188 45.265625 17.609375 L 45.277344 17.597656 C 45.335938 17.535156 45.394531 17.492188 45.445312 17.441406 L 45.449219 17.4375 L 45.449219 17.433594 L 45.453125 17.433594 L 45.453125 17.429688 C 45.464844 17.410156 45.476562 17.394531 45.496094 17.382812 C 45.554688 17.324219 45.609375 17.273438 45.664062 17.21875 C 45.667969 17.214844 45.671875 17.210938 45.675781 17.207031 C 45.675781 17.207031 45.679688 17.203125 45.679688 17.203125 C 45.679688 17.203125 45.679688 17.199219 45.683594 17.195312 C 45.6875 17.191406 45.6875 17.191406 45.691406 17.1875 L 45.695312 17.183594 C 45.695312 17.183594 45.699219 17.183594 45.699219 17.183594 C 45.761719 17.121094 45.832031 17.066406 45.972656 16.941406 C 45.972656 16.941406 45.972656 16.9375 45.972656 16.933594 C 45.992188 16.917969 46.011719 16.90625 46.03125 16.890625 L 46.035156 16.886719 C 46.089844 16.835938 46.171875 16.804688 46.257812 16.839844 C 46.285156 16.847656 46.3125 16.859375 46.339844 16.871094 C 46.914062 17.082031 47.558594 17.472656 48.332031 17.984375 C 49.023438 18.441406 49.902344 18.523438 50.667969 18.203125 C 50.703125 18.183594 50.734375 18.171875 50.746094 18.167969 L 50.75 18.164062 C 50.753906 18.160156 50.761719 18.160156 50.765625 18.15625 C 51.53125 17.84375 52.089844 17.164062 52.257812 16.355469 C 52.4375 15.464844 52.621094 14.75 52.871094 14.199219 C 52.871094 14.191406 52.871094 14.1875 52.875 14.179688 C 52.875 14.171875 52.882812 14.164062 52.886719 14.15625 C 52.902344 14.128906 52.910156 14.105469 52.921875 14.082031 L 52.925781 14.078125 C 52.960938 14 53.042969 13.953125 53.121094 13.953125 C 53.144531 13.949219 53.167969 13.949219 53.195312 13.945312 C 53.195312 13.945312 53.199219 13.945312 53.199219 13.945312 C 53.347656 13.9375 53.457031 13.933594 53.5625 13.929688 Z M 54.007812 19.523438 C 53.898438 19.515625 53.789062 19.523438 53.671875 19.53125 C 52.992188 19.574219 52.335938 19.851562 51.828125 20.328125 C 51.203125 20.914062 50.878906 21.730469 50.902344 22.578125 C 50.902344 22.628906 50.902344 22.65625 50.902344 22.695312 C 50.902344 22.734375 50.902344 22.777344 50.902344 22.792969 C 50.914062 22.890625 50.945312 22.992188 50.988281 23.078125 C 51.136719 23.390625 51.445312 23.59375 51.789062 23.59375 C 52.164062 23.59375 52.507812 23.347656 52.632812 22.992188 C 52.632812 22.992188 52.632812 22.984375 52.632812 22.984375 C 52.679688 22.867188 52.699219 22.730469 52.6875 22.609375 C 52.652344 22.265625 52.792969 21.875 53.042969 21.636719 C 53.296875 21.398438 53.710938 21.277344 54.054688 21.335938 C 54.34375 21.386719 54.632812 21.5625 54.8125 21.804688 C 54.992188 22.050781 55.078125 22.398438 55.039062 22.703125 C 55 23.019531 54.820312 23.382812 54.550781 23.761719 C 54.28125 24.140625 53.914062 24.546875 53.570312 25.058594 C 53.144531 25.6875 52.761719 26.480469 52.808594 27.40625 C 52.828125 27.734375 52.910156 28.066406 53.035156 28.371094 C 53.078125 28.460938 53.226562 28.691406 53.277344 28.738281 C 53.445312 28.90625 53.65625 28.996094 53.898438 28.996094 C 54.390625 28.996094 54.796875 28.601562 54.796875 28.109375 C 54.796875 28.058594 54.785156 28.007812 54.773438 27.949219 C 54.765625 27.875 54.742188 27.804688 54.707031 27.734375 C 54.648438 27.605469 54.617188 27.457031 54.605469 27.316406 C 54.589844 26.953125 54.757812 26.5 55.054688 26.058594 C 55.308594 25.683594 55.667969 25.28125 56.019531 24.785156 C 56.375 24.289062 56.71875 23.6875 56.8125 22.933594 C 56.914062 22.167969 56.726562 21.394531 56.269531 20.765625 C 55.8125 20.136719 55.125 19.703125 54.355469 19.570312 C 54.234375 19.550781 54.117188 19.527344 54.007812 19.523438 Z M 29.730469 25.660156 L 40.253906 25.660156 C 40.253906 25.695312 40.253906 25.730469 40.253906 25.765625 C 40.257812 25.777344 40.261719 25.785156 40.261719 25.796875 L 40.261719 25.8125 C 40.261719 25.824219 40.257812 25.835938 40.253906 25.847656 C 40.253906 25.921875 40.253906 26 40.253906 26.074219 C 40.257812 26.085938 40.261719 26.09375 40.261719 26.101562 L 40.261719 26.109375 C 40.261719 26.117188 40.257812 26.128906 40.253906 26.136719 C 40.253906 26.136719 40.253906 26.140625 40.253906 26.144531 C 40.257812 26.292969 40.269531 26.433594 40.277344 26.578125 C 40.277344 26.578125 40.277344 26.582031 40.277344 26.585938 C 40.277344 26.59375 40.277344 26.597656 40.277344 26.605469 C 40.300781 27.363281 40.757812 28.039062 41.441406 28.34375 C 41.445312 28.34375 41.445312 28.347656 41.449219 28.347656 L 41.457031 28.351562 C 41.441406 28.34375 41.453125 28.347656 41.464844 28.351562 C 41.472656 28.355469 41.484375 28.367188 41.503906 28.375 C 41.503906 28.375 41.507812 28.375 41.507812 28.375 C 41.515625 28.378906 41.519531 28.378906 41.523438 28.382812 C 42.183594 28.683594 42.921875 28.867188 43.691406 29.035156 L 32.410156 29.035156 C 32.160156 29.035156 31.917969 29.207031 31.832031 29.445312 L 31.640625 30 C 31.574219 30.183594 31.605469 30.398438 31.714844 30.558594 C 31.828125 30.71875 32.023438 30.816406 32.21875 30.816406 L 44.339844 30.816406 C 43.9375 31.441406 43.566406 32.058594 43.324219 32.703125 C 43.324219 32.707031 43.324219 32.707031 43.320312 32.710938 L 43.320312 32.714844 C 43.316406 32.722656 43.316406 32.730469 43.3125 32.742188 C 43.304688 32.761719 43.300781 32.78125 43.296875 32.800781 C 43.296875 32.804688 43.292969 32.804688 43.292969 32.808594 C 43.089844 33.339844 43.128906 33.929688 43.386719 34.421875 L 32.628906 34.421875 C 32.628906 34.421875 32.625 34.421875 32.625 34.421875 C 32.371094 34.421875 32.132812 34.59375 32.050781 34.832031 L 31.851562 35.382812 C 31.789062 35.566406 31.816406 35.785156 31.929688 35.941406 C 32.042969 36.101562 32.238281 36.203125 32.433594 36.203125 L 45.144531 36.203125 C 45.660156 36.527344 46.296875 36.617188 46.882812 36.394531 C 46.882812 36.394531 46.882812 36.390625 46.886719 36.390625 C 46.90625 36.382812 46.929688 36.378906 46.949219 36.371094 C 46.953125 36.371094 46.953125 36.371094 46.957031 36.371094 C 47.753906 36.078125 48.503906 35.601562 49.289062 35.082031 C 49.496094 34.941406 49.757812 34.917969 49.988281 35.015625 L 49.992188 35.015625 C 50.050781 35.039062 50.09375 35.0625 50.109375 35.070312 L 50.109375 35.066406 C 50.335938 35.160156 50.5 35.359375 50.550781 35.597656 L 50.554688 35.597656 C 50.742188 36.515625 50.945312 37.386719 51.300781 38.160156 L 51.296875 38.15625 C 51.296875 38.160156 51.304688 38.167969 51.304688 38.171875 C 51.3125 38.1875 51.316406 38.203125 51.320312 38.214844 C 51.324219 38.21875 51.328125 38.222656 51.332031 38.226562 C 51.332031 38.230469 51.335938 38.234375 51.335938 38.238281 C 51.640625 38.921875 52.316406 39.378906 53.070312 39.402344 C 53.078125 39.402344 53.085938 39.402344 53.09375 39.402344 C 53.09375 39.402344 53.097656 39.402344 53.097656 39.402344 C 53.109375 39.402344 53.121094 39.402344 53.132812 39.402344 L 53.132812 48.164062 C 53.132812 48.179688 53.128906 48.191406 53.128906 48.199219 C 53.128906 48.207031 53.128906 48.214844 53.128906 48.222656 C 53.125 48.230469 53.121094 48.242188 53.117188 48.25 C 53.09375 49.472656 52.164062 50.496094 50.945312 50.621094 C 50.941406 50.621094 50.9375 50.621094 50.933594 50.621094 C 50.929688 50.621094 50.925781 50.621094 50.921875 50.621094 L 50.910156 50.621094 C 50.476562 50.652344 50.035156 50.671875 49.582031 50.65625 C 49.113281 50.640625 48.609375 50.597656 48.078125 50.589844 C 45.199219 50.589844 42.835938 52.921875 42.835938 55.796875 C 42.835938 55.90625 42.828125 56 42.835938 56.074219 C 42.851562 56.515625 42.882812 56.945312 42.894531 57.335938 C 42.910156 57.832031 42.902344 58.351562 42.859375 58.835938 C 42.859375 58.839844 42.859375 58.839844 42.859375 58.84375 C 42.734375 60.074219 41.699219 61.023438 40.457031 61.03125 L 29.726562 61.03125 C 28.78125 61.03125 28.011719 60.261719 28.011719 59.3125 L 28.011719 55.03125 C 29.53125 54.628906 30.980469 53.863281 32.203125 52.722656 C 32.355469 52.585938 32.488281 52.433594 32.628906 52.289062 C 32.691406 52.332031 32.761719 52.359375 32.832031 52.359375 L 41.398438 52.359375 C 41.59375 52.359375 41.789062 52.257812 41.902344 52.097656 C 42.015625 51.9375 42.046875 51.726562 41.980469 51.542969 L 41.78125 50.988281 C 41.699219 50.75 41.460938 50.578125 41.207031 50.578125 L 33.941406 50.578125 C 34.621094 49.449219 35.058594 48.210938 35.246094 46.941406 C 35.28125 46.960938 35.324219 46.972656 35.363281 46.972656 L 49.570312 46.972656 C 49.765625 46.972656 49.957031 46.875 50.070312 46.714844 C 50.183594 46.554688 50.214844 46.339844 50.148438 46.15625 L 49.953125 45.601562 C 49.871094 45.363281 49.628906 45.191406 49.375 45.191406 L 35.363281 45.191406 C 35.359375 45.191406 35.355469 45.195312 35.351562 45.195312 C 35.316406 43.964844 35.050781 42.742188 34.558594 41.585938 L 49.570312 41.585938 C 49.765625 41.585938 49.957031 41.488281 50.070312 41.328125 C 50.183594 41.167969 50.214844 40.953125 50.148438 40.769531 L 49.953125 40.214844 C 49.871094 39.980469 49.628906 39.804688 49.375 39.804688 L 33.570312 39.804688 C 33.3125 39.4375 33.035156 39.078125 32.71875 38.738281 C 31.4375 37.355469 29.804688 36.398438 28.011719 35.921875 L 28.011719 27.378906 C 28.011719 26.429688 28.78125 25.660156 29.730469 25.660156 Z M 53.804688 29.890625 C 53.222656 29.929688 52.773438 30.410156 52.773438 30.992188 C 52.773438 31.597656 53.265625 32.085938 53.871094 32.089844 C 54.476562 32.089844 54.96875 31.601562 54.972656 30.992188 C 54.972656 30.382812 54.480469 29.890625 53.875 29.890625 C 53.871094 29.890625 53.871094 29.890625 53.871094 29.890625 C 53.855469 29.890625 53.847656 29.890625 53.832031 29.890625 C 53.820312 29.890625 53.8125 29.890625 53.804688 29.890625 Z M 25.363281 37.351562 C 27.660156 37.324219 29.851562 38.261719 31.414062 39.941406 C 34.464844 43.226562 34.28125 48.367188 30.996094 51.417969 C 27.710938 54.472656 22.574219 54.285156 19.519531 51 C 16.46875 47.714844 16.65625 42.582031 19.945312 39.527344 C 19.945312 39.523438 19.945312 39.519531 19.945312 39.519531 L 19.957031 39.511719 C 21.429688 38.152344 23.359375 37.378906 25.363281 37.351562 Z M 51.785156 52.394531 C 51.800781 52.394531 51.816406 52.394531 51.832031 52.394531 C 51.988281 52.40625 52.105469 52.539062 52.097656 52.691406 C 52.09375 52.753906 52.066406 52.816406 52.023438 52.863281 L 45.1875 60.128906 C 45.148438 60.171875 45.117188 60.21875 45.078125 60.269531 C 45.019531 60.335938 44.9375 60.375 44.851562 60.371094 C 44.695312 60.375 44.566406 60.25 44.566406 60.09375 C 44.566406 60.078125 44.566406 60.066406 44.570312 60.050781 C 44.734375 59.121094 44.78125 58.179688 44.75 57.265625 C 44.726562 56.578125 44.6875 55.964844 44.695312 55.390625 C 44.695312 55.386719 44.695312 55.378906 44.695312 55.371094 C 44.828125 53.808594 46.078125 52.570312 47.644531 52.449219 C 47.652344 52.449219 47.652344 52.449219 47.660156 52.449219 C 48.226562 52.441406 48.832031 52.480469 49.515625 52.503906 C 50.257812 52.527344 51.023438 52.496094 51.785156 52.394531 Z M 15.199219 54.019531 C 15.234375 54.007812 15.273438 54.007812 15.3125 54.019531 C 15.382812 54.03125 15.445312 54.078125 15.480469 54.15625 C 15.480469 54.15625 15.484375 54.15625 15.484375 54.15625 L 15.921875 55.15625 L 15.914062 55.15625 C 15.957031 55.25 15.9375 55.351562 15.863281 55.421875 L 15.617188 55.648438 L 14.796875 56.417969 L 11.449219 59.523438 L 10.628906 60.285156 L 10.117188 60.761719 C 9.996094 60.875 9.804688 60.835938 9.738281 60.679688 L 9.308594 59.683594 C 9.269531 59.589844 9.289062 59.480469 9.359375 59.410156 L 9.601562 59.191406 L 10.421875 58.425781 L 13.765625 55.316406 L 14.589844 54.546875 L 15.101562 54.078125 C 15.132812 54.046875 15.164062 54.027344 15.199219 54.019531 Z M 31.800781 55.964844 C 31.546875 55.964844 31.308594 56.136719 31.222656 56.375 L 31.027344 56.925781 C 30.960938 57.113281 30.992188 57.324219 31.105469 57.484375 C 31.21875 57.644531 31.410156 57.742188 31.609375 57.742188 L 39.875 57.742188 C 40.070312 57.742188 40.261719 57.644531 40.375 57.484375 C 40.488281 57.324219 40.519531 57.113281 40.453125 56.925781 L 40.257812 56.375 C 40.175781 56.136719 39.933594 55.964844 39.683594 55.964844 Z M 31.800781 55.964844 " fill-opacity="1" fill-rule="nonzero"/></g></svg>