<svg xmlns="http://www.w3.org/2000/svg" xmlns:xlink="http://www.w3.org/1999/xlink" width="100" zoomAndPan="magnify" viewBox="0 0 75 74.999997" height="100" preserveAspectRatio="xMidYMid meet" version="1.0"><defs><clipPath id="1c3145372a"><path d="M 9.867188 11.285156 L 65.367188 11.285156 L 65.367188 63.785156 L 9.867188 63.785156 Z M 9.867188 11.285156 " clip-rule="nonzero"/></clipPath></defs><g clip-path="url(#1c3145372a)"><path fill="#2c74dd" d="M 11.242188 44.074219 L 11.242188 15.351562 C 11.242188 13.125 13.0625 11.304688 15.292969 11.304688 L 55.6875 11.304688 C 57.914062 11.304688 59.734375 13.125 59.734375 15.351562 L 59.734375 36.089844 C 59.925781 36.359375 60.074219 36.667969 60.164062 37.003906 L 62.230469 44.714844 C 62.238281 44.746094 62.246094 44.78125 62.25 44.816406 C 62.542969 46.296875 62.726562 47.695312 62.816406 49.175781 C 62.894531 50.40625 62.910156 51.703125 62.878906 53.160156 C 63.621094 53.183594 64.285156 53.691406 64.484375 54.425781 L 65.0625 56.59375 C 65.308594 57.5 64.757812 58.445312 63.855469 58.683594 C 57.699219 60.304688 51.527344 62.097656 45.363281 63.636719 C 44.441406 63.875 43.515625 63.328125 43.273438 62.429688 L 42.691406 60.261719 C 42.476562 59.457031 42.882812 58.617188 43.625 58.269531 C 43.3125 57.472656 43.175781 57.007812 42.699219 56.234375 C 42.367188 55.707031 41.976562 55.21875 41.5 54.742188 L 39.117188 52.363281 L 15.625 52.363281 C 12.457031 52.363281 9.867188 49.773438 9.867188 46.605469 L 9.867188 44.832031 C 9.867188 44.414062 10.210938 44.074219 10.628906 44.074219 Z M 61.359375 53.492188 C 61.398438 51.9375 61.386719 50.566406 61.304688 49.265625 C 61.214844 47.839844 61.042969 46.507812 60.765625 45.113281 L 58.699219 37.398438 C 58.378906 36.210938 56.769531 35.984375 56.144531 37.0625 C 55.804688 37.652344 56.03125 38.046875 56.03125 38.316406 C 56.03125 39.191406 54.765625 39.363281 54.539062 38.511719 L 53.9375 36.265625 C 53.507812 34.65625 51.328125 34.363281 50.492188 35.808594 C 50.246094 36.234375 50.171875 36.734375 50.304688 37.246094 L 50.980469 39.757812 C 51.085938 40.160156 50.847656 40.578125 50.441406 40.683594 C 50.035156 40.792969 49.621094 40.550781 49.511719 40.148438 L 48.40625 36.019531 C 47.976562 34.414062 45.800781 34.117188 44.964844 35.566406 C 44.722656 35.984375 44.640625 36.492188 44.773438 36.996094 L 45.878906 41.121094 C 45.988281 41.527344 45.75 41.941406 45.34375 42.050781 C 44.9375 42.160156 44.523438 41.917969 44.414062 41.515625 L 41.078125 29.066406 C 40.945312 28.570312 40.621094 28.167969 40.203125 27.929688 L 40.203125 27.925781 C 39.300781 27.410156 38.160156 27.714844 37.636719 28.617188 C 37.394531 29.035156 37.3125 29.542969 37.449219 30.042969 L 41.53125 45.28125 C 41.765625 46.074219 40.816406 46.597656 40.269531 46.054688 L 36.117188 41.898438 C 35.75 41.535156 35.269531 41.351562 34.785156 41.351562 L 34.785156 41.347656 C 33.105469 41.347656 32.289062 43.386719 33.457031 44.554688 L 42.570312 53.671875 C 43.132812 54.234375 43.597656 54.808594 43.984375 55.433594 C 44.558594 56.359375 44.707031 56.875 45.085938 57.851562 Z M 62.78125 54.683594 L 44.292969 59.636719 C 44.1875 59.664062 44.128906 59.769531 44.15625 59.871094 L 44.726562 61.996094 C 44.777344 62.160156 44.84375 62.203125 45.011719 62.160156 L 63.421875 57.226562 C 63.585938 57.179688 63.628906 57.113281 63.585938 56.941406 L 63.015625 54.816406 C 62.988281 54.710938 62.886719 54.652344 62.78125 54.679688 Z M 58.214844 34.980469 L 58.214844 15.351562 C 58.214844 13.964844 57.078125 12.824219 55.6875 12.824219 L 15.292969 12.824219 C 13.902344 12.824219 12.761719 13.964844 12.761719 15.351562 L 12.761719 44.074219 L 15.320312 44.074219 L 15.320312 16.148438 C 15.320312 15.613281 15.765625 15.15625 16.3125 15.15625 L 54.667969 15.15625 C 55.199219 15.15625 55.660156 15.601562 55.660156 16.148438 L 55.660156 35.390625 C 56.402344 34.855469 57.351562 34.707031 58.214844 34.980469 Z M 54.140625 34.023438 L 54.140625 16.675781 L 16.839844 16.675781 L 16.839844 44.074219 L 31.496094 44.074219 C 30.953125 41.929688 32.550781 39.832031 34.785156 39.832031 C 35.65625 39.832031 36.527344 40.160156 37.191406 40.824219 L 39.339844 42.972656 L 35.980469 30.433594 C 35.742188 29.542969 35.886719 28.597656 36.324219 27.859375 L 36.324219 27.855469 C 37.269531 26.21875 39.367188 25.675781 40.960938 26.617188 C 41.714844 27.050781 42.304688 27.773438 42.546875 28.675781 L 44.042969 34.265625 C 45.542969 32.554688 48.230469 32.796875 49.445312 34.664062 C 50.582031 33.199219 52.652344 32.929688 54.140625 34.023438 Z M 32.347656 45.59375 L 30.546875 45.59375 L 30.546875 47.457031 L 34.210938 47.457031 Z M 35.730469 48.976562 L 29.785156 48.976562 C 29.367188 48.976562 29.027344 48.636719 29.027344 48.21875 L 29.027344 45.59375 L 11.390625 45.59375 L 11.390625 46.609375 C 11.390625 48.9375 13.296875 50.84375 15.625 50.84375 L 37.597656 50.84375 L 35.730469 48.980469 Z M 35.730469 48.976562 " fill-opacity="1" fill-rule="evenodd"/></g></svg>